<mxfile host="Electron" agent="Mozilla/5.0 (Windows NT 10.0; Win64; x64) AppleWebKit/537.36 (KHTML, like Gecko) draw.io/25.0.2 Chrome/128.0.6613.186 Electron/32.2.5 Safari/537.36" version="25.0.2" pages="9">
  <diagram id="qRX7T1axlw7ms7uUUddH" name="ES_legend">
    <mxGraphModel dx="4185" dy="2110" grid="1" gridSize="10" guides="1" tooltips="1" connect="1" arrows="1" fold="1" page="1" pageScale="1" pageWidth="827" pageHeight="1169" math="0" shadow="0">
      <root>
        <mxCell id="0" />
        <mxCell id="1" parent="0" />
        <mxCell id="V2g0O_qNFGEGFfRRTy4w-3" value="&lt;div&gt;Domain Event&lt;/div&gt;" style="rounded=1;whiteSpace=wrap;html=1;fillColor=#CC6600;strokeColor=#FFFFFF;fontColor=#FFFFFF;fontSize=14;fontStyle=1" parent="1" vertex="1">
          <mxGeometry x="270" y="370" width="200" height="80" as="geometry" />
        </mxCell>
        <mxCell id="V2g0O_qNFGEGFfRRTy4w-4" value="Command" style="rounded=1;whiteSpace=wrap;html=1;fillColor=#007FFF;strokeColor=#FFFFFF;fontColor=#FFFFFF;fontSize=14;fontStyle=1" parent="1" vertex="1">
          <mxGeometry x="510" y="370" width="200" height="80" as="geometry" />
        </mxCell>
        <mxCell id="V2g0O_qNFGEGFfRRTy4w-5" value="Policy" style="rounded=1;whiteSpace=wrap;html=1;fillColor=#7F00FF;strokeColor=#FFFFFF;fontColor=#FFFFFF;fontSize=14;fontStyle=1" parent="1" vertex="1">
          <mxGeometry x="510" y="490" width="200" height="80" as="geometry" />
        </mxCell>
        <mxCell id="V2g0O_qNFGEGFfRRTy4w-6" value="Actor" style="rounded=1;whiteSpace=wrap;html=1;fillColor=#663300;strokeColor=#FFFFFF;fontColor=#FFFFFF;fontSize=14;fontStyle=1" parent="1" vertex="1">
          <mxGeometry x="270" y="610" width="50" height="50" as="geometry" />
        </mxCell>
        <mxCell id="V2g0O_qNFGEGFfRRTy4w-7" value="Aggregate" style="rounded=1;whiteSpace=wrap;html=1;fillColor=#663300;strokeColor=#FFFFFF;fontColor=#FFFFFF;fontSize=14;fontStyle=1" parent="1" vertex="1">
          <mxGeometry x="1030" y="370" width="200" height="80" as="geometry" />
        </mxCell>
        <mxCell id="V2g0O_qNFGEGFfRRTy4w-8" value="Read Model" style="rounded=1;whiteSpace=wrap;html=1;fillColor=#66FF66;strokeColor=#FFFFFF;fontColor=#FFFFFF;fontSize=14;fontStyle=1" parent="1" vertex="1">
          <mxGeometry x="510" y="610" width="100" height="80" as="geometry" />
        </mxCell>
        <mxCell id="V2g0O_qNFGEGFfRRTy4w-9" value="External System" style="rounded=1;whiteSpace=wrap;html=1;fillColor=#FF3399;strokeColor=#FFFFFF;fontColor=#FFFFFF;fontSize=14;fontStyle=1" parent="1" vertex="1">
          <mxGeometry x="270" y="730" width="200" height="80" as="geometry" />
        </mxCell>
        <mxCell id="V2g0O_qNFGEGFfRRTy4w-10" value="Hot Spot" style="rounded=1;whiteSpace=wrap;html=1;fillColor=#FFCCFF;strokeColor=#FFFFFF;fontColor=#FFFFFF;fontSize=14;fontStyle=1" parent="1" vertex="1">
          <mxGeometry x="270" y="490" width="200" height="80" as="geometry" />
        </mxCell>
        <mxCell id="V2g0O_qNFGEGFfRRTy4w-11" value="&lt;div&gt;&lt;span&gt;&lt;font&gt;label&lt;/font&gt;&lt;/span&gt;&lt;/div&gt;" style="rounded=1;whiteSpace=wrap;html=1;fillColor=#67AB89;strokeColor=#FFFFFF;fontColor=#FFFFFF;fontSize=14;fontStyle=1" parent="1" vertex="1">
          <mxGeometry x="270" y="320" width="680" height="40" as="geometry" />
        </mxCell>
        <mxCell id="V2g0O_qNFGEGFfRRTy4w-12" value="Mapping" style="rounded=1;whiteSpace=wrap;html=1;fillColor=#000033;strokeColor=#FFFFFF;fontColor=#FFFFFF;fontSize=14;fontStyle=1" parent="1" vertex="1">
          <mxGeometry x="750" y="370" width="200" height="80" as="geometry" />
        </mxCell>
        <mxCell id="V2g0O_qNFGEGFfRRTy4w-13" value="Other process" style="rounded=1;fillColor=#CC6600;strokeColor=#FFFFFF;fontColor=default;rotation=0;html=1;whiteSpace=wrap;horizontal=1;direction=east;flipH=1;movable=1;resizable=1;rotatable=1;deletable=1;editable=1;locked=0;connectable=1;arcSize=50;fontSize=14;fontStyle=1" parent="1" vertex="1">
          <mxGeometry x="750" y="490" width="200" height="80" as="geometry" />
        </mxCell>
        <mxCell id="V2g0O_qNFGEGFfRRTy4w-14" value="Rule" style="rounded=1;whiteSpace=wrap;html=1;fillColor=#211100;strokeColor=#FFFFFF;fontColor=#FFFFFF;fontSize=14;fontStyle=1" parent="1" vertex="1">
          <mxGeometry x="510" y="730" width="200" height="38" as="geometry" />
        </mxCell>
        <mxCell id="V2g0O_qNFGEGFfRRTy4w-15" value="&lt;div&gt;Context synchronously&amp;nbsp; call other Context&lt;br&gt;&lt;/div&gt;&lt;div&gt;(Strongly&amp;nbsp; consistent)&lt;br&gt;&lt;/div&gt;" style="rounded=1;whiteSpace=wrap;html=1;fillColor=#000033;strokeColor=#FFFFFF;fontColor=#FFFFFF;fontSize=14;fontStyle=1" parent="1" vertex="1">
          <mxGeometry x="1310" y="370" width="200" height="80" as="geometry" />
        </mxCell>
        <mxCell id="V2g0O_qNFGEGFfRRTy4w-16" value="Context events invoke other Context&lt;br&gt;&lt;div&gt;(Eventually&amp;nbsp; consistent)&lt;/div&gt;" style="rounded=1;whiteSpace=wrap;html=1;fillColor=#3D1F00;strokeColor=#FFFFFF;fontColor=#FFFFFF;fontSize=14;fontStyle=1" parent="1" vertex="1">
          <mxGeometry x="1310" y="490" width="200" height="80" as="geometry" />
        </mxCell>
        <mxCell id="V2g0O_qNFGEGFfRRTy4w-17" value="Entity" style="rounded=1;whiteSpace=wrap;html=1;fillColor=#265E26;strokeColor=#FFFFFF;fontColor=#FFFFFF;fontSize=14;fontStyle=1" parent="1" vertex="1">
          <mxGeometry x="1030" y="490" width="200" height="80" as="geometry" />
        </mxCell>
        <mxCell id="V2g0O_qNFGEGFfRRTy4w-23" value="note" style="rounded=1;whiteSpace=wrap;html=1;fillColor=#ffe6cc;strokeColor=#d79b00;fontSize=14;fontStyle=1" parent="1" vertex="1">
          <mxGeometry x="750" y="610" width="200" height="80" as="geometry" />
        </mxCell>
      </root>
    </mxGraphModel>
  </diagram>
  <diagram name="ES_bigPicutre" id="uu61ZB2BLoHpMJcwzKP7">
    <mxGraphModel dx="15086" dy="8440" grid="1" gridSize="10" guides="1" tooltips="1" connect="1" arrows="1" fold="1" page="1" pageScale="1" pageWidth="827" pageHeight="1169" math="0" shadow="0">
      <root>
        <mxCell id="_YWjtywWohadxaH47-9a-0" />
        <mxCell id="_YWjtywWohadxaH47-9a-1" parent="_YWjtywWohadxaH47-9a-0" />
        <mxCell id="_YWjtywWohadxaH47-9a-19" value="&lt;div&gt;&lt;span&gt;&lt;font&gt;process of adding/removing reaction&lt;br&gt;&lt;/font&gt;&lt;/span&gt;&lt;/div&gt;" style="rounded=1;whiteSpace=wrap;html=1;fillColor=#67AB89;strokeColor=#FFFFFF;fontColor=#FFFFFF;fontSize=14;fontStyle=1" vertex="1" parent="_YWjtywWohadxaH47-9a-1">
          <mxGeometry x="2190" y="640" width="1000" height="40" as="geometry" />
        </mxCell>
        <mxCell id="_YWjtywWohadxaH47-9a-20" value="Reaction Added" style="rounded=1;whiteSpace=wrap;html=1;fillColor=#CC6600;strokeColor=#FFFFFF;fontColor=#FFFFFF;fontSize=14;fontStyle=1" vertex="1" parent="_YWjtywWohadxaH47-9a-1">
          <mxGeometry x="2510" y="720" width="200" height="80" as="geometry" />
        </mxCell>
        <mxCell id="_YWjtywWohadxaH47-9a-21" value="User" style="rounded=1;whiteSpace=wrap;html=1;fillColor=#663300;strokeColor=#FFFFFF;fontColor=#FFFFFF;fontSize=14;fontStyle=1" vertex="1" parent="_YWjtywWohadxaH47-9a-1">
          <mxGeometry x="2480" y="780" width="50" height="50" as="geometry" />
        </mxCell>
        <mxCell id="_YWjtywWohadxaH47-9a-22" value="Reaction Removed" style="rounded=1;whiteSpace=wrap;html=1;fillColor=#CC6600;strokeColor=#FFFFFF;fontColor=#FFFFFF;fontSize=14;fontStyle=1" vertex="1" parent="_YWjtywWohadxaH47-9a-1">
          <mxGeometry x="2510" y="840" width="200" height="80" as="geometry" />
        </mxCell>
        <mxCell id="_YWjtywWohadxaH47-9a-23" value="User" style="rounded=1;whiteSpace=wrap;html=1;fillColor=#663300;strokeColor=#FFFFFF;fontColor=#FFFFFF;fontSize=14;fontStyle=1" vertex="1" parent="_YWjtywWohadxaH47-9a-1">
          <mxGeometry x="2480" y="900" width="50" height="50" as="geometry" />
        </mxCell>
        <mxCell id="_YWjtywWohadxaH47-9a-58" value="&lt;div&gt;&lt;span&gt;&lt;font&gt;process of creating/updating/removing rating&lt;br&gt;&lt;/font&gt;&lt;/span&gt;&lt;/div&gt;" style="rounded=1;whiteSpace=wrap;html=1;fillColor=#67AB89;strokeColor=#FFFFFF;fontColor=#FFFFFF;fontSize=14;fontStyle=1" vertex="1" parent="_YWjtywWohadxaH47-9a-1">
          <mxGeometry x="3190" y="640" width="1000" height="40" as="geometry" />
        </mxCell>
        <mxCell id="_YWjtywWohadxaH47-9a-59" value="Rating Created" style="rounded=1;whiteSpace=wrap;html=1;fillColor=#CC6600;strokeColor=#FFFFFF;fontColor=#FFFFFF;fontSize=14;fontStyle=1" vertex="1" parent="_YWjtywWohadxaH47-9a-1">
          <mxGeometry x="3510" y="720" width="200" height="80" as="geometry" />
        </mxCell>
        <mxCell id="_YWjtywWohadxaH47-9a-60" value="User" style="rounded=1;whiteSpace=wrap;html=1;fillColor=#663300;strokeColor=#FFFFFF;fontColor=#FFFFFF;fontSize=14;fontStyle=1" vertex="1" parent="_YWjtywWohadxaH47-9a-1">
          <mxGeometry x="3480" y="780" width="50" height="50" as="geometry" />
        </mxCell>
        <mxCell id="_YWjtywWohadxaH47-9a-61" value="Rating Removed" style="rounded=1;whiteSpace=wrap;html=1;fillColor=#CC6600;strokeColor=#FFFFFF;fontColor=#FFFFFF;fontSize=14;fontStyle=1" vertex="1" parent="_YWjtywWohadxaH47-9a-1">
          <mxGeometry x="3510" y="960" width="200" height="80" as="geometry" />
        </mxCell>
        <mxCell id="_YWjtywWohadxaH47-9a-62" value="User" style="rounded=1;whiteSpace=wrap;html=1;fillColor=#663300;strokeColor=#FFFFFF;fontColor=#FFFFFF;fontSize=14;fontStyle=1" vertex="1" parent="_YWjtywWohadxaH47-9a-1">
          <mxGeometry x="3480" y="1020" width="50" height="50" as="geometry" />
        </mxCell>
        <mxCell id="_YWjtywWohadxaH47-9a-63" value="Rating Updated" style="rounded=1;whiteSpace=wrap;html=1;fillColor=#CC6600;strokeColor=#FFFFFF;fontColor=#FFFFFF;fontSize=14;fontStyle=1" vertex="1" parent="_YWjtywWohadxaH47-9a-1">
          <mxGeometry x="3510" y="840" width="200" height="80" as="geometry" />
        </mxCell>
        <mxCell id="_YWjtywWohadxaH47-9a-64" value="User" style="rounded=1;whiteSpace=wrap;html=1;fillColor=#663300;strokeColor=#FFFFFF;fontColor=#FFFFFF;fontSize=14;fontStyle=1" vertex="1" parent="_YWjtywWohadxaH47-9a-1">
          <mxGeometry x="3480" y="900" width="50" height="50" as="geometry" />
        </mxCell>
        <mxCell id="_YWjtywWohadxaH47-9a-65" value="&lt;div&gt;&lt;span&gt;&lt;font&gt;process of creating/updating/removing comment&lt;br&gt;&lt;/font&gt;&lt;/span&gt;&lt;/div&gt;" style="rounded=1;whiteSpace=wrap;html=1;fillColor=#67AB89;strokeColor=#FFFFFF;fontColor=#FFFFFF;fontSize=14;fontStyle=1" vertex="1" parent="_YWjtywWohadxaH47-9a-1">
          <mxGeometry x="4190" y="640" width="1000" height="40" as="geometry" />
        </mxCell>
        <mxCell id="_YWjtywWohadxaH47-9a-66" value="Comment Created" style="rounded=1;whiteSpace=wrap;html=1;fillColor=#CC6600;strokeColor=#FFFFFF;fontColor=#FFFFFF;fontSize=14;fontStyle=1" vertex="1" parent="_YWjtywWohadxaH47-9a-1">
          <mxGeometry x="4510" y="720" width="200" height="80" as="geometry" />
        </mxCell>
        <mxCell id="_YWjtywWohadxaH47-9a-67" value="User" style="rounded=1;whiteSpace=wrap;html=1;fillColor=#663300;strokeColor=#FFFFFF;fontColor=#FFFFFF;fontSize=14;fontStyle=1" vertex="1" parent="_YWjtywWohadxaH47-9a-1">
          <mxGeometry x="4480" y="780" width="50" height="50" as="geometry" />
        </mxCell>
        <mxCell id="_YWjtywWohadxaH47-9a-68" value="Comment Removed" style="rounded=1;whiteSpace=wrap;html=1;fillColor=#CC6600;strokeColor=#FFFFFF;fontColor=#FFFFFF;fontSize=14;fontStyle=1" vertex="1" parent="_YWjtywWohadxaH47-9a-1">
          <mxGeometry x="4510" y="960" width="200" height="80" as="geometry" />
        </mxCell>
        <mxCell id="_YWjtywWohadxaH47-9a-69" value="User" style="rounded=1;whiteSpace=wrap;html=1;fillColor=#663300;strokeColor=#FFFFFF;fontColor=#FFFFFF;fontSize=14;fontStyle=1" vertex="1" parent="_YWjtywWohadxaH47-9a-1">
          <mxGeometry x="4480" y="1020" width="50" height="50" as="geometry" />
        </mxCell>
        <mxCell id="_YWjtywWohadxaH47-9a-70" value="Comment Updated" style="rounded=1;whiteSpace=wrap;html=1;fillColor=#CC6600;strokeColor=#FFFFFF;fontColor=#FFFFFF;fontSize=14;fontStyle=1" vertex="1" parent="_YWjtywWohadxaH47-9a-1">
          <mxGeometry x="4510" y="840" width="200" height="80" as="geometry" />
        </mxCell>
        <mxCell id="_YWjtywWohadxaH47-9a-71" value="User" style="rounded=1;whiteSpace=wrap;html=1;fillColor=#663300;strokeColor=#FFFFFF;fontColor=#FFFFFF;fontSize=14;fontStyle=1" vertex="1" parent="_YWjtywWohadxaH47-9a-1">
          <mxGeometry x="4480" y="900" width="50" height="50" as="geometry" />
        </mxCell>
        <mxCell id="_YWjtywWohadxaH47-9a-72" value="Comment Hidden" style="rounded=1;whiteSpace=wrap;html=1;fillColor=#CC6600;strokeColor=#FFFFFF;fontColor=#FFFFFF;fontSize=14;fontStyle=1" vertex="1" parent="_YWjtywWohadxaH47-9a-1">
          <mxGeometry x="4510" y="1080" width="200" height="80" as="geometry" />
        </mxCell>
        <mxCell id="_YWjtywWohadxaH47-9a-73" value="Moderator" style="rounded=1;whiteSpace=wrap;html=1;fillColor=#663300;strokeColor=#FFFFFF;fontColor=#FFFFFF;fontSize=14;fontStyle=1" vertex="1" parent="_YWjtywWohadxaH47-9a-1">
          <mxGeometry x="4480" y="1140" width="120" height="50" as="geometry" />
        </mxCell>
        <mxCell id="_YWjtywWohadxaH47-9a-74" value="Comment Restored" style="rounded=1;whiteSpace=wrap;html=1;fillColor=#CC6600;strokeColor=#FFFFFF;fontColor=#FFFFFF;fontSize=14;fontStyle=1" vertex="1" parent="_YWjtywWohadxaH47-9a-1">
          <mxGeometry x="4510" y="1200" width="200" height="80" as="geometry" />
        </mxCell>
        <mxCell id="_YWjtywWohadxaH47-9a-75" value="Moderator" style="rounded=1;whiteSpace=wrap;html=1;fillColor=#663300;strokeColor=#FFFFFF;fontColor=#FFFFFF;fontSize=14;fontStyle=1" vertex="1" parent="_YWjtywWohadxaH47-9a-1">
          <mxGeometry x="4480" y="1260" width="120" height="50" as="geometry" />
        </mxCell>
        <mxCell id="_YWjtywWohadxaH47-9a-76" value="Report Created" style="rounded=1;whiteSpace=wrap;html=1;fillColor=#CC6600;strokeColor=#FFFFFF;fontColor=#FFFFFF;fontSize=14;fontStyle=1" vertex="1" parent="_YWjtywWohadxaH47-9a-1">
          <mxGeometry x="4870" y="960" width="200" height="80" as="geometry" />
        </mxCell>
        <mxCell id="_YWjtywWohadxaH47-9a-77" value="User" style="rounded=1;whiteSpace=wrap;html=1;fillColor=#663300;strokeColor=#FFFFFF;fontColor=#FFFFFF;fontSize=14;fontStyle=1" vertex="1" parent="_YWjtywWohadxaH47-9a-1">
          <mxGeometry x="4840" y="1020" width="50" height="50" as="geometry" />
        </mxCell>
        <mxCell id="_YWjtywWohadxaH47-9a-78" value="Report Approved" style="rounded=1;whiteSpace=wrap;html=1;fillColor=#CC6600;strokeColor=#FFFFFF;fontColor=#FFFFFF;fontSize=14;fontStyle=1" vertex="1" parent="_YWjtywWohadxaH47-9a-1">
          <mxGeometry x="4870" y="1080" width="200" height="80" as="geometry" />
        </mxCell>
        <mxCell id="_YWjtywWohadxaH47-9a-79" value="Moderator" style="rounded=1;whiteSpace=wrap;html=1;fillColor=#663300;strokeColor=#FFFFFF;fontColor=#FFFFFF;fontSize=14;fontStyle=1" vertex="1" parent="_YWjtywWohadxaH47-9a-1">
          <mxGeometry x="4840" y="1140" width="120" height="50" as="geometry" />
        </mxCell>
        <mxCell id="_YWjtywWohadxaH47-9a-80" value="Report Rejected" style="rounded=1;whiteSpace=wrap;html=1;fillColor=#CC6600;strokeColor=#FFFFFF;fontColor=#FFFFFF;fontSize=14;fontStyle=1" vertex="1" parent="_YWjtywWohadxaH47-9a-1">
          <mxGeometry x="4870" y="1200" width="200" height="80" as="geometry" />
        </mxCell>
        <mxCell id="_YWjtywWohadxaH47-9a-81" value="Moderator" style="rounded=1;whiteSpace=wrap;html=1;fillColor=#663300;strokeColor=#FFFFFF;fontColor=#FFFFFF;fontSize=14;fontStyle=1" vertex="1" parent="_YWjtywWohadxaH47-9a-1">
          <mxGeometry x="4840" y="1260" width="120" height="50" as="geometry" />
        </mxCell>
      </root>
    </mxGraphModel>
  </diagram>
  <diagram name="ES_processModeling" id="_2xL-g5D74hglYhoC9Y9">
    <mxGraphModel dx="-230" dy="-668" grid="1" gridSize="10" guides="1" tooltips="1" connect="1" arrows="1" fold="1" page="1" pageScale="1" pageWidth="827" pageHeight="1169" math="0" shadow="0">
      <root>
        <mxCell id="K6WiDuYZHgRzSPWKhzfV-0" />
        <mxCell id="K6WiDuYZHgRzSPWKhzfV-1" parent="K6WiDuYZHgRzSPWKhzfV-0" />
        <mxCell id="K6WiDuYZHgRzSPWKhzfV-2" value="Approve Report" style="rounded=1;whiteSpace=wrap;html=1;fillColor=#007FFF;strokeColor=#FFFFFF;fontColor=#FFFFFF;fontSize=14;fontStyle=1" vertex="1" parent="K6WiDuYZHgRzSPWKhzfV-1">
          <mxGeometry x="2440" y="7520" width="200" height="80" as="geometry" />
        </mxCell>
        <mxCell id="K6WiDuYZHgRzSPWKhzfV-3" value="Create Comment" style="rounded=1;whiteSpace=wrap;html=1;fillColor=#007FFF;strokeColor=#FFFFFF;fontColor=#FFFFFF;fontSize=14;fontStyle=1" vertex="1" parent="K6WiDuYZHgRzSPWKhzfV-1">
          <mxGeometry x="2440" y="6000" width="200" height="80" as="geometry" />
        </mxCell>
        <mxCell id="K6WiDuYZHgRzSPWKhzfV-25" value="Reaction Removed" style="rounded=1;whiteSpace=wrap;html=1;fillColor=#CC6600;strokeColor=#FFFFFF;fontColor=#FFFFFF;fontSize=14;fontStyle=1" vertex="1" parent="K6WiDuYZHgRzSPWKhzfV-1">
          <mxGeometry x="3160" y="3680" width="200" height="80" as="geometry" />
        </mxCell>
        <mxCell id="K6WiDuYZHgRzSPWKhzfV-26" value="&lt;div&gt;process of removing user reaction&lt;span&gt;&lt;font&gt;&lt;br&gt;&lt;/font&gt;&lt;/span&gt;&lt;/div&gt;" style="rounded=1;whiteSpace=wrap;html=1;fillColor=#67AB89;strokeColor=#FFFFFF;fontColor=#FFFFFF;fontSize=14;fontStyle=1" vertex="1" parent="K6WiDuYZHgRzSPWKhzfV-1">
          <mxGeometry x="2200" y="3600" width="3000" height="40" as="geometry" />
        </mxCell>
        <mxCell id="K6WiDuYZHgRzSPWKhzfV-27" value="the one when user successfully remove reaction" style="rounded=1;whiteSpace=wrap;html=1;fillColor=#000033;strokeColor=#FFFFFF;fontColor=#FFFFFF;fontSize=14;fontStyle=1" vertex="1" parent="K6WiDuYZHgRzSPWKhzfV-1">
          <mxGeometry x="2200" y="3680" width="200" height="80" as="geometry" />
        </mxCell>
        <mxCell id="K6WiDuYZHgRzSPWKhzfV-28" value="Remove Reaction" style="rounded=1;whiteSpace=wrap;html=1;fillColor=#007FFF;strokeColor=#FFFFFF;fontColor=#FFFFFF;fontSize=14;fontStyle=1" vertex="1" parent="K6WiDuYZHgRzSPWKhzfV-1">
          <mxGeometry x="2680" y="3680" width="200" height="80" as="geometry" />
        </mxCell>
        <mxCell id="K6WiDuYZHgRzSPWKhzfV-29" value="User" style="rounded=1;whiteSpace=wrap;html=1;fillColor=#663300;strokeColor=#FFFFFF;fontColor=#FFFFFF;fontSize=14;fontStyle=1" vertex="1" parent="K6WiDuYZHgRzSPWKhzfV-1">
          <mxGeometry x="2660" y="3730" width="50" height="50" as="geometry" />
        </mxCell>
        <mxCell id="K6WiDuYZHgRzSPWKhzfV-30" value="reaction exists" style="rounded=1;whiteSpace=wrap;html=1;fillColor=#211100;strokeColor=#FFFFFF;fontColor=#FFFFFF;fontSize=14;fontStyle=1" vertex="1" parent="K6WiDuYZHgRzSPWKhzfV-1">
          <mxGeometry x="2920" y="3680" width="200" height="38" as="geometry" />
        </mxCell>
        <mxCell id="K6WiDuYZHgRzSPWKhzfV-57" value="Hide Comment Policy.&lt;div&gt;Whenever report is approved&lt;br&gt;&lt;/div&gt;" style="rounded=1;whiteSpace=wrap;html=1;fillColor=#7F00FF;strokeColor=#FFFFFF;fontColor=#FFFFFF;fontSize=14;fontStyle=1" vertex="1" parent="K6WiDuYZHgRzSPWKhzfV-1">
          <mxGeometry x="2680" y="6800" width="200" height="80" as="geometry" />
        </mxCell>
        <mxCell id="K6WiDuYZHgRzSPWKhzfV-82" value="Add Reaction" style="rounded=1;whiteSpace=wrap;html=1;fillColor=#007FFF;strokeColor=#FFFFFF;fontColor=#FFFFFF;fontSize=14;fontStyle=1" vertex="1" parent="K6WiDuYZHgRzSPWKhzfV-1">
          <mxGeometry x="2440" y="3420" width="200" height="80" as="geometry" />
        </mxCell>
        <mxCell id="K6WiDuYZHgRzSPWKhzfV-83" value="User" style="rounded=1;whiteSpace=wrap;html=1;fillColor=#663300;strokeColor=#FFFFFF;fontColor=#FFFFFF;fontSize=14;fontStyle=1" vertex="1" parent="K6WiDuYZHgRzSPWKhzfV-1">
          <mxGeometry x="2420" y="3470" width="50" height="50" as="geometry" />
        </mxCell>
        <mxCell id="K6WiDuYZHgRzSPWKhzfV-84" style="edgeStyle=orthogonalEdgeStyle;rounded=0;orthogonalLoop=1;jettySize=auto;html=1;entryX=0;entryY=0.5;entryDx=0;entryDy=0;exitX=1;exitY=0.5;exitDx=0;exitDy=0;" edge="1" parent="K6WiDuYZHgRzSPWKhzfV-1" source="K6WiDuYZHgRzSPWKhzfV-85" target="K6WiDuYZHgRzSPWKhzfV-97">
          <mxGeometry relative="1" as="geometry">
            <mxPoint x="3380" y="3340" as="sourcePoint" />
            <Array as="points">
              <mxPoint x="3380" y="3350" />
              <mxPoint x="3380" y="3300" />
              <mxPoint x="3620" y="3300" />
              <mxPoint x="3620" y="3350" />
            </Array>
          </mxGeometry>
        </mxCell>
        <mxCell id="K6WiDuYZHgRzSPWKhzfV-85" value="&lt;div&gt;Reaction Creating Policy.&lt;/div&gt;&lt;div&gt;Whenever reaction did not exist&lt;br&gt;&lt;/div&gt;" style="rounded=1;whiteSpace=wrap;html=1;fillColor=#7F00FF;strokeColor=#FFFFFF;fontColor=#FFFFFF;fontSize=14;fontStyle=1" vertex="1" parent="K6WiDuYZHgRzSPWKhzfV-1">
          <mxGeometry x="3160" y="3310" width="200" height="80" as="geometry" />
        </mxCell>
        <mxCell id="K6WiDuYZHgRzSPWKhzfV-86" style="edgeStyle=orthogonalEdgeStyle;rounded=0;orthogonalLoop=1;jettySize=auto;html=1;entryX=0;entryY=0.5;entryDx=0;entryDy=0;" edge="1" parent="K6WiDuYZHgRzSPWKhzfV-1" source="K6WiDuYZHgRzSPWKhzfV-87" target="K6WiDuYZHgRzSPWKhzfV-97">
          <mxGeometry relative="1" as="geometry" />
        </mxCell>
        <mxCell id="K6WiDuYZHgRzSPWKhzfV-87" value="Reaction Created" style="rounded=1;whiteSpace=wrap;html=1;fillColor=#CC6600;strokeColor=#FFFFFF;fontColor=#FFFFFF;fontSize=14;fontStyle=1" vertex="1" parent="K6WiDuYZHgRzSPWKhzfV-1">
          <mxGeometry x="3400" y="3350" width="200" height="80" as="geometry" />
        </mxCell>
        <mxCell id="K6WiDuYZHgRzSPWKhzfV-88" value="Command Processed Negatively" style="rounded=1;whiteSpace=wrap;html=1;fillColor=#CC6600;strokeColor=#FFFFFF;fontColor=#FFFFFF;fontSize=14;fontStyle=1" vertex="1" parent="K6WiDuYZHgRzSPWKhzfV-1">
          <mxGeometry x="2920" y="3470" width="200" height="80" as="geometry" />
        </mxCell>
        <mxCell id="K6WiDuYZHgRzSPWKhzfV-89" style="edgeStyle=orthogonalEdgeStyle;rounded=0;orthogonalLoop=1;jettySize=auto;html=1;exitX=1;exitY=0.5;exitDx=0;exitDy=0;entryX=0;entryY=0.5;entryDx=0;entryDy=0;" edge="1" parent="K6WiDuYZHgRzSPWKhzfV-1" source="K6WiDuYZHgRzSPWKhzfV-91" target="K6WiDuYZHgRzSPWKhzfV-85">
          <mxGeometry relative="1" as="geometry" />
        </mxCell>
        <mxCell id="K6WiDuYZHgRzSPWKhzfV-90" style="edgeStyle=orthogonalEdgeStyle;rounded=0;orthogonalLoop=1;jettySize=auto;html=1;exitX=1;exitY=0.5;exitDx=0;exitDy=0;entryX=0;entryY=0.5;entryDx=0;entryDy=0;" edge="1" parent="K6WiDuYZHgRzSPWKhzfV-1" source="K6WiDuYZHgRzSPWKhzfV-91" target="K6WiDuYZHgRzSPWKhzfV-101">
          <mxGeometry relative="1" as="geometry" />
        </mxCell>
        <mxCell id="K6WiDuYZHgRzSPWKhzfV-91" value="Allowed Reactions Policy.&lt;br&gt;User can only add allowed reactions" style="rounded=1;whiteSpace=wrap;html=1;fillColor=#7F00FF;strokeColor=#FFFFFF;fontColor=#FFFFFF;fontSize=14;fontStyle=1" vertex="1" parent="K6WiDuYZHgRzSPWKhzfV-1">
          <mxGeometry x="2920" y="3370" width="200" height="80" as="geometry" />
        </mxCell>
        <mxCell id="K6WiDuYZHgRzSPWKhzfV-92" style="edgeStyle=orthogonalEdgeStyle;rounded=0;orthogonalLoop=1;jettySize=auto;html=1;" edge="1" parent="K6WiDuYZHgRzSPWKhzfV-1" source="K6WiDuYZHgRzSPWKhzfV-94" target="K6WiDuYZHgRzSPWKhzfV-91">
          <mxGeometry relative="1" as="geometry" />
        </mxCell>
        <mxCell id="K6WiDuYZHgRzSPWKhzfV-93" style="edgeStyle=orthogonalEdgeStyle;rounded=0;orthogonalLoop=1;jettySize=auto;html=1;exitX=1;exitY=0.5;exitDx=0;exitDy=0;entryX=0;entryY=0.5;entryDx=0;entryDy=0;" edge="1" parent="K6WiDuYZHgRzSPWKhzfV-1" source="K6WiDuYZHgRzSPWKhzfV-94" target="K6WiDuYZHgRzSPWKhzfV-88">
          <mxGeometry relative="1" as="geometry" />
        </mxCell>
        <mxCell id="K6WiDuYZHgRzSPWKhzfV-94" value="Allowed Domain Object Types Policy.&lt;br&gt;User can only add raction do allowed object types." style="rounded=1;whiteSpace=wrap;html=1;fillColor=#7F00FF;strokeColor=#FFFFFF;fontColor=#FFFFFF;fontSize=14;fontStyle=1" vertex="1" parent="K6WiDuYZHgRzSPWKhzfV-1">
          <mxGeometry x="2680" y="3420" width="200" height="80" as="geometry" />
        </mxCell>
        <mxCell id="K6WiDuYZHgRzSPWKhzfV-95" style="edgeStyle=orthogonalEdgeStyle;rounded=0;orthogonalLoop=1;jettySize=auto;html=1;entryX=0;entryY=0.5;entryDx=0;entryDy=0;" edge="1" parent="K6WiDuYZHgRzSPWKhzfV-1" source="K6WiDuYZHgRzSPWKhzfV-97" target="K6WiDuYZHgRzSPWKhzfV-103">
          <mxGeometry relative="1" as="geometry" />
        </mxCell>
        <mxCell id="K6WiDuYZHgRzSPWKhzfV-96" style="edgeStyle=orthogonalEdgeStyle;rounded=0;orthogonalLoop=1;jettySize=auto;html=1;entryX=0;entryY=0.5;entryDx=0;entryDy=0;exitX=1;exitY=0.5;exitDx=0;exitDy=0;" edge="1" parent="K6WiDuYZHgRzSPWKhzfV-1" source="K6WiDuYZHgRzSPWKhzfV-97" target="K6WiDuYZHgRzSPWKhzfV-100">
          <mxGeometry relative="1" as="geometry">
            <Array as="points">
              <mxPoint x="3860" y="3350" />
              <mxPoint x="3860" y="3310" />
              <mxPoint x="4100" y="3310" />
              <mxPoint x="4100" y="3350" />
            </Array>
          </mxGeometry>
        </mxCell>
        <mxCell id="K6WiDuYZHgRzSPWKhzfV-97" value="Single Reaction Policy.&lt;br&gt;User can only have one reaction per object" style="rounded=1;whiteSpace=wrap;html=1;fillColor=#7F00FF;strokeColor=#FFFFFF;fontColor=#FFFFFF;fontSize=14;fontStyle=1" vertex="1" parent="K6WiDuYZHgRzSPWKhzfV-1">
          <mxGeometry x="3640" y="3310" width="200" height="80" as="geometry" />
        </mxCell>
        <mxCell id="K6WiDuYZHgRzSPWKhzfV-98" style="edgeStyle=orthogonalEdgeStyle;rounded=0;orthogonalLoop=1;jettySize=auto;html=1;exitX=1;exitY=0.5;exitDx=0;exitDy=0;entryX=0;entryY=0.5;entryDx=0;entryDy=0;" edge="1" parent="K6WiDuYZHgRzSPWKhzfV-1" source="K6WiDuYZHgRzSPWKhzfV-100" target="K6WiDuYZHgRzSPWKhzfV-106">
          <mxGeometry relative="1" as="geometry" />
        </mxCell>
        <mxCell id="K6WiDuYZHgRzSPWKhzfV-99" style="edgeStyle=orthogonalEdgeStyle;rounded=0;orthogonalLoop=1;jettySize=auto;html=1;entryX=0;entryY=0.5;entryDx=0;entryDy=0;exitX=1;exitY=0.5;exitDx=0;exitDy=0;" edge="1" parent="K6WiDuYZHgRzSPWKhzfV-1" source="K6WiDuYZHgRzSPWKhzfV-100" target="K6WiDuYZHgRzSPWKhzfV-107">
          <mxGeometry relative="1" as="geometry">
            <Array as="points">
              <mxPoint x="4340" y="3350" />
              <mxPoint x="4340" y="3310" />
              <mxPoint x="4580" y="3310" />
              <mxPoint x="4580" y="3350" />
            </Array>
          </mxGeometry>
        </mxCell>
        <mxCell id="K6WiDuYZHgRzSPWKhzfV-100" value="Like Dislike Policy.&lt;br&gt;User can not have like and dislike reaction per object" style="rounded=1;whiteSpace=wrap;html=1;fillColor=#7F00FF;strokeColor=#FFFFFF;fontColor=#FFFFFF;fontSize=14;fontStyle=1" vertex="1" parent="K6WiDuYZHgRzSPWKhzfV-1">
          <mxGeometry x="4120" y="3310" width="200" height="80" as="geometry" />
        </mxCell>
        <mxCell id="K6WiDuYZHgRzSPWKhzfV-101" value="Command Processed Negatively" style="rounded=1;whiteSpace=wrap;html=1;fillColor=#CC6600;strokeColor=#FFFFFF;fontColor=#FFFFFF;fontSize=14;fontStyle=1" vertex="1" parent="K6WiDuYZHgRzSPWKhzfV-1">
          <mxGeometry x="3160" y="3410" width="200" height="80" as="geometry" />
        </mxCell>
        <mxCell id="K6WiDuYZHgRzSPWKhzfV-102" style="edgeStyle=orthogonalEdgeStyle;rounded=0;orthogonalLoop=1;jettySize=auto;html=1;entryX=0;entryY=0.5;entryDx=0;entryDy=0;" edge="1" parent="K6WiDuYZHgRzSPWKhzfV-1" source="K6WiDuYZHgRzSPWKhzfV-103" target="K6WiDuYZHgRzSPWKhzfV-100">
          <mxGeometry relative="1" as="geometry" />
        </mxCell>
        <mxCell id="K6WiDuYZHgRzSPWKhzfV-103" value="Reaction Removed" style="rounded=1;whiteSpace=wrap;html=1;fillColor=#CC6600;strokeColor=#FFFFFF;fontColor=#FFFFFF;fontSize=14;fontStyle=1" vertex="1" parent="K6WiDuYZHgRzSPWKhzfV-1">
          <mxGeometry x="3880" y="3350" width="200" height="80" as="geometry" />
        </mxCell>
        <mxCell id="K6WiDuYZHgRzSPWKhzfV-104" value="Reaction Removed" style="rounded=1;whiteSpace=wrap;html=1;fillColor=#CC6600;strokeColor=#FFFFFF;fontColor=#FFFFFF;fontSize=14;fontStyle=1" vertex="1" parent="K6WiDuYZHgRzSPWKhzfV-1">
          <mxGeometry x="3890" y="3360" width="200" height="80" as="geometry" />
        </mxCell>
        <mxCell id="K6WiDuYZHgRzSPWKhzfV-105" style="edgeStyle=orthogonalEdgeStyle;rounded=0;orthogonalLoop=1;jettySize=auto;html=1;entryX=0;entryY=0.5;entryDx=0;entryDy=0;" edge="1" parent="K6WiDuYZHgRzSPWKhzfV-1" source="K6WiDuYZHgRzSPWKhzfV-106" target="K6WiDuYZHgRzSPWKhzfV-107">
          <mxGeometry relative="1" as="geometry" />
        </mxCell>
        <mxCell id="K6WiDuYZHgRzSPWKhzfV-106" value="Reaction Removed" style="rounded=1;whiteSpace=wrap;html=1;fillColor=#CC6600;strokeColor=#FFFFFF;fontColor=#FFFFFF;fontSize=14;fontStyle=1" vertex="1" parent="K6WiDuYZHgRzSPWKhzfV-1">
          <mxGeometry x="4360" y="3350" width="200" height="80" as="geometry" />
        </mxCell>
        <mxCell id="K6WiDuYZHgRzSPWKhzfV-107" value="Reaction Added" style="rounded=1;whiteSpace=wrap;html=1;fillColor=#CC6600;strokeColor=#FFFFFF;fontColor=#FFFFFF;fontSize=14;fontStyle=1" vertex="1" parent="K6WiDuYZHgRzSPWKhzfV-1">
          <mxGeometry x="4600" y="3310" width="200" height="80" as="geometry" />
        </mxCell>
        <mxCell id="K6WiDuYZHgRzSPWKhzfV-108" value="the one when user successfully add reaction" style="rounded=1;whiteSpace=wrap;html=1;fillColor=#000033;strokeColor=#FFFFFF;fontColor=#FFFFFF;fontSize=14;fontStyle=1" vertex="1" parent="K6WiDuYZHgRzSPWKhzfV-1">
          <mxGeometry x="2200" y="3420" width="200" height="80" as="geometry" />
        </mxCell>
        <mxCell id="K6WiDuYZHgRzSPWKhzfV-109" value="&lt;div&gt;process of adding user reaction&lt;span&gt;&lt;font&gt;&lt;br&gt;&lt;/font&gt;&lt;/span&gt;&lt;/div&gt;" style="rounded=1;whiteSpace=wrap;html=1;fillColor=#67AB89;strokeColor=#FFFFFF;fontColor=#FFFFFF;fontSize=14;fontStyle=1" vertex="1" parent="K6WiDuYZHgRzSPWKhzfV-1">
          <mxGeometry x="2200" y="3230" width="3000" height="40" as="geometry" />
        </mxCell>
        <mxCell id="K6WiDuYZHgRzSPWKhzfV-110" value="&lt;div&gt;process of upserting rating&lt;span&gt;&lt;font&gt;&lt;br&gt;&lt;/font&gt;&lt;/span&gt;&lt;/div&gt;" style="rounded=1;whiteSpace=wrap;html=1;fillColor=#67AB89;strokeColor=#FFFFFF;fontColor=#FFFFFF;fontSize=14;fontStyle=1" vertex="1" parent="K6WiDuYZHgRzSPWKhzfV-1">
          <mxGeometry x="2200" y="4636" width="2000" height="40" as="geometry" />
        </mxCell>
        <mxCell id="K6WiDuYZHgRzSPWKhzfV-111" value="Upsert Rating" style="rounded=1;whiteSpace=wrap;html=1;fillColor=#007FFF;strokeColor=#FFFFFF;fontColor=#FFFFFF;fontSize=14;fontStyle=1" vertex="1" parent="K6WiDuYZHgRzSPWKhzfV-1">
          <mxGeometry x="2480" y="4841" width="200" height="80" as="geometry" />
        </mxCell>
        <mxCell id="K6WiDuYZHgRzSPWKhzfV-112" value="User" style="rounded=1;whiteSpace=wrap;html=1;fillColor=#663300;strokeColor=#FFFFFF;fontColor=#FFFFFF;fontSize=14;fontStyle=1" vertex="1" parent="K6WiDuYZHgRzSPWKhzfV-1">
          <mxGeometry x="2460" y="4891" width="50" height="50" as="geometry" />
        </mxCell>
        <mxCell id="K6WiDuYZHgRzSPWKhzfV-113" value="the one when user successfully upsert rating" style="rounded=1;whiteSpace=wrap;html=1;fillColor=#000033;strokeColor=#FFFFFF;fontColor=#FFFFFF;fontSize=14;fontStyle=1" vertex="1" parent="K6WiDuYZHgRzSPWKhzfV-1">
          <mxGeometry x="2200" y="4841" width="200" height="80" as="geometry" />
        </mxCell>
        <mxCell id="K6WiDuYZHgRzSPWKhzfV-114" value="Rating Created" style="rounded=1;whiteSpace=wrap;html=1;fillColor=#CC6600;strokeColor=#FFFFFF;fontColor=#FFFFFF;fontSize=14;fontStyle=1" vertex="1" parent="K6WiDuYZHgRzSPWKhzfV-1">
          <mxGeometry x="3680" y="4691" width="200" height="80" as="geometry" />
        </mxCell>
        <mxCell id="K6WiDuYZHgRzSPWKhzfV-115" style="edgeStyle=orthogonalEdgeStyle;rounded=0;orthogonalLoop=1;jettySize=auto;html=1;entryX=0;entryY=0.5;entryDx=0;entryDy=0;" edge="1" parent="K6WiDuYZHgRzSPWKhzfV-1" source="K6WiDuYZHgRzSPWKhzfV-118" target="K6WiDuYZHgRzSPWKhzfV-127">
          <mxGeometry relative="1" as="geometry" />
        </mxCell>
        <mxCell id="K6WiDuYZHgRzSPWKhzfV-116" style="edgeStyle=orthogonalEdgeStyle;rounded=0;orthogonalLoop=1;jettySize=auto;html=1;exitX=1;exitY=0.5;exitDx=0;exitDy=0;entryX=0;entryY=0.5;entryDx=0;entryDy=0;" edge="1" parent="K6WiDuYZHgRzSPWKhzfV-1" source="K6WiDuYZHgRzSPWKhzfV-118" target="K6WiDuYZHgRzSPWKhzfV-122">
          <mxGeometry relative="1" as="geometry">
            <mxPoint x="3440" y="4781" as="targetPoint" />
            <Array as="points">
              <mxPoint x="3180" y="4831" />
              <mxPoint x="3180" y="4781" />
              <mxPoint x="3420" y="4781" />
              <mxPoint x="3420" y="4731" />
            </Array>
          </mxGeometry>
        </mxCell>
        <mxCell id="K6WiDuYZHgRzSPWKhzfV-117" style="edgeStyle=orthogonalEdgeStyle;rounded=0;orthogonalLoop=1;jettySize=auto;html=1;entryX=0;entryY=0.5;entryDx=0;entryDy=0;exitX=1;exitY=0.5;exitDx=0;exitDy=0;" edge="1" parent="K6WiDuYZHgRzSPWKhzfV-1" source="K6WiDuYZHgRzSPWKhzfV-118" target="K6WiDuYZHgRzSPWKhzfV-125">
          <mxGeometry relative="1" as="geometry">
            <Array as="points">
              <mxPoint x="3180" y="4831" />
              <mxPoint x="3180" y="4781" />
              <mxPoint x="3420" y="4781" />
              <mxPoint x="3420" y="4831" />
            </Array>
          </mxGeometry>
        </mxCell>
        <mxCell id="K6WiDuYZHgRzSPWKhzfV-118" value="Range Rating Policy.&lt;br&gt;The user can only add a rating from the selected range&amp;nbsp;" style="rounded=1;whiteSpace=wrap;html=1;fillColor=#7F00FF;strokeColor=#FFFFFF;fontColor=#FFFFFF;fontSize=14;fontStyle=1" vertex="1" parent="K6WiDuYZHgRzSPWKhzfV-1">
          <mxGeometry x="2960" y="4791" width="200" height="80" as="geometry" />
        </mxCell>
        <mxCell id="K6WiDuYZHgRzSPWKhzfV-119" style="edgeStyle=orthogonalEdgeStyle;rounded=0;orthogonalLoop=1;jettySize=auto;html=1;entryX=0;entryY=0.5;entryDx=0;entryDy=0;" edge="1" parent="K6WiDuYZHgRzSPWKhzfV-1" source="K6WiDuYZHgRzSPWKhzfV-120" target="K6WiDuYZHgRzSPWKhzfV-118">
          <mxGeometry relative="1" as="geometry" />
        </mxCell>
        <mxCell id="K6WiDuYZHgRzSPWKhzfV-120" value="Allowed Domain Object Types Policy.&lt;br&gt;User can only add rating to allowed object types." style="rounded=1;whiteSpace=wrap;html=1;fillColor=#7F00FF;strokeColor=#FFFFFF;fontColor=#FFFFFF;fontSize=14;fontStyle=1" vertex="1" parent="K6WiDuYZHgRzSPWKhzfV-1">
          <mxGeometry x="2720" y="4841" width="200" height="80" as="geometry" />
        </mxCell>
        <mxCell id="K6WiDuYZHgRzSPWKhzfV-121" style="edgeStyle=orthogonalEdgeStyle;rounded=0;orthogonalLoop=1;jettySize=auto;html=1;entryX=0;entryY=0.5;entryDx=0;entryDy=0;" edge="1" parent="K6WiDuYZHgRzSPWKhzfV-1" source="K6WiDuYZHgRzSPWKhzfV-122" target="K6WiDuYZHgRzSPWKhzfV-114">
          <mxGeometry relative="1" as="geometry" />
        </mxCell>
        <mxCell id="K6WiDuYZHgRzSPWKhzfV-122" value="&lt;div&gt;&lt;span style=&quot;background-color: initial;&quot;&gt;Creating&lt;/span&gt;&lt;span style=&quot;background-color: initial;&quot;&gt;&amp;nbsp;&lt;/span&gt;Rating Policy.&lt;/div&gt;&lt;div&gt;Whenever rating did not exist&lt;br&gt;&lt;/div&gt;" style="rounded=1;whiteSpace=wrap;html=1;fillColor=#7F00FF;strokeColor=#FFFFFF;fontColor=#FFFFFF;fontSize=14;fontStyle=1" vertex="1" parent="K6WiDuYZHgRzSPWKhzfV-1">
          <mxGeometry x="3440" y="4691" width="200" height="80" as="geometry" />
        </mxCell>
        <mxCell id="K6WiDuYZHgRzSPWKhzfV-123" value="Rating Updated" style="rounded=1;whiteSpace=wrap;html=1;fillColor=#CC6600;strokeColor=#FFFFFF;fontColor=#FFFFFF;fontSize=14;fontStyle=1" vertex="1" parent="K6WiDuYZHgRzSPWKhzfV-1">
          <mxGeometry x="3680" y="4791" width="200" height="80" as="geometry" />
        </mxCell>
        <mxCell id="K6WiDuYZHgRzSPWKhzfV-124" style="edgeStyle=orthogonalEdgeStyle;rounded=0;orthogonalLoop=1;jettySize=auto;html=1;" edge="1" parent="K6WiDuYZHgRzSPWKhzfV-1" source="K6WiDuYZHgRzSPWKhzfV-125" target="K6WiDuYZHgRzSPWKhzfV-123">
          <mxGeometry relative="1" as="geometry" />
        </mxCell>
        <mxCell id="K6WiDuYZHgRzSPWKhzfV-125" value="&lt;div&gt;Updating Rating Policy.&lt;/div&gt;&lt;div&gt;Whenever rating exists&lt;br&gt;&lt;/div&gt;" style="rounded=1;whiteSpace=wrap;html=1;fillColor=#7F00FF;strokeColor=#FFFFFF;fontColor=#FFFFFF;fontSize=14;fontStyle=1" vertex="1" parent="K6WiDuYZHgRzSPWKhzfV-1">
          <mxGeometry x="3440" y="4791" width="200" height="80" as="geometry" />
        </mxCell>
        <mxCell id="K6WiDuYZHgRzSPWKhzfV-126" value="Command Processed Negatively" style="rounded=1;whiteSpace=wrap;html=1;fillColor=#CC6600;strokeColor=#FFFFFF;fontColor=#FFFFFF;fontSize=14;fontStyle=1" vertex="1" parent="K6WiDuYZHgRzSPWKhzfV-1">
          <mxGeometry x="2960" y="4891" width="200" height="80" as="geometry" />
        </mxCell>
        <mxCell id="K6WiDuYZHgRzSPWKhzfV-127" value="Command Processed Negatively" style="rounded=1;whiteSpace=wrap;html=1;fillColor=#CC6600;strokeColor=#FFFFFF;fontColor=#FFFFFF;fontSize=14;fontStyle=1" vertex="1" parent="K6WiDuYZHgRzSPWKhzfV-1">
          <mxGeometry x="3200" y="4841" width="200" height="80" as="geometry" />
        </mxCell>
        <mxCell id="K6WiDuYZHgRzSPWKhzfV-128" style="edgeStyle=orthogonalEdgeStyle;rounded=0;orthogonalLoop=1;jettySize=auto;html=1;exitX=1;exitY=0.5;exitDx=0;exitDy=0;entryX=0.013;entryY=0.547;entryDx=0;entryDy=0;entryPerimeter=0;" edge="1" parent="K6WiDuYZHgRzSPWKhzfV-1" source="K6WiDuYZHgRzSPWKhzfV-120" target="K6WiDuYZHgRzSPWKhzfV-126">
          <mxGeometry relative="1" as="geometry" />
        </mxCell>
        <mxCell id="K6WiDuYZHgRzSPWKhzfV-129" style="edgeStyle=orthogonalEdgeStyle;rounded=0;orthogonalLoop=1;jettySize=auto;html=1;entryX=0.008;entryY=0.547;entryDx=0;entryDy=0;entryPerimeter=0;" edge="1" parent="K6WiDuYZHgRzSPWKhzfV-1" source="K6WiDuYZHgRzSPWKhzfV-85" target="K6WiDuYZHgRzSPWKhzfV-87">
          <mxGeometry relative="1" as="geometry" />
        </mxCell>
        <mxCell id="K6WiDuYZHgRzSPWKhzfV-130" value="&lt;div&gt;process of removing&amp;nbsp;&lt;span style=&quot;background-color: initial;&quot;&gt;rating&lt;/span&gt;&lt;span&gt;&lt;font&gt;&lt;br&gt;&lt;/font&gt;&lt;/span&gt;&lt;/div&gt;" style="rounded=1;whiteSpace=wrap;html=1;fillColor=#67AB89;strokeColor=#FFFFFF;fontColor=#FFFFFF;fontSize=14;fontStyle=1" vertex="1" parent="K6WiDuYZHgRzSPWKhzfV-1">
          <mxGeometry x="2200" y="5041" width="2000" height="40" as="geometry" />
        </mxCell>
        <mxCell id="K6WiDuYZHgRzSPWKhzfV-131" value="Rating Removed" style="rounded=1;whiteSpace=wrap;html=1;fillColor=#CC6600;strokeColor=#FFFFFF;fontColor=#FFFFFF;fontSize=14;fontStyle=1" vertex="1" parent="K6WiDuYZHgRzSPWKhzfV-1">
          <mxGeometry x="2960" y="5161" width="200" height="80" as="geometry" />
        </mxCell>
        <mxCell id="K6WiDuYZHgRzSPWKhzfV-132" value="the one when user successfully remove rating" style="rounded=1;whiteSpace=wrap;html=1;fillColor=#000033;strokeColor=#FFFFFF;fontColor=#FFFFFF;fontSize=14;fontStyle=1" vertex="1" parent="K6WiDuYZHgRzSPWKhzfV-1">
          <mxGeometry x="2200" y="5161" width="200" height="80" as="geometry" />
        </mxCell>
        <mxCell id="K6WiDuYZHgRzSPWKhzfV-133" value="Remove Rating" style="rounded=1;whiteSpace=wrap;html=1;fillColor=#007FFF;strokeColor=#FFFFFF;fontColor=#FFFFFF;fontSize=14;fontStyle=1" vertex="1" parent="K6WiDuYZHgRzSPWKhzfV-1">
          <mxGeometry x="2480" y="5161" width="200" height="80" as="geometry" />
        </mxCell>
        <mxCell id="K6WiDuYZHgRzSPWKhzfV-134" value="User" style="rounded=1;whiteSpace=wrap;html=1;fillColor=#663300;strokeColor=#FFFFFF;fontColor=#FFFFFF;fontSize=14;fontStyle=1" vertex="1" parent="K6WiDuYZHgRzSPWKhzfV-1">
          <mxGeometry x="2460" y="5211" width="50" height="50" as="geometry" />
        </mxCell>
        <mxCell id="K6WiDuYZHgRzSPWKhzfV-135" value="rating exists" style="rounded=1;whiteSpace=wrap;html=1;fillColor=#211100;strokeColor=#FFFFFF;fontColor=#FFFFFF;fontSize=14;fontStyle=1" vertex="1" parent="K6WiDuYZHgRzSPWKhzfV-1">
          <mxGeometry x="2720" y="5161" width="200" height="38" as="geometry" />
        </mxCell>
        <mxCell id="K6WiDuYZHgRzSPWKhzfV-136" value="Comment Created" style="rounded=1;whiteSpace=wrap;html=1;fillColor=#CC6600;strokeColor=#FFFFFF;fontColor=#FFFFFF;fontSize=14;fontStyle=1" vertex="1" parent="K6WiDuYZHgRzSPWKhzfV-1">
          <mxGeometry x="2680" y="6000" width="200" height="80" as="geometry" />
        </mxCell>
        <mxCell id="K6WiDuYZHgRzSPWKhzfV-137" value="Comment Removed" style="rounded=1;whiteSpace=wrap;html=1;fillColor=#CC6600;strokeColor=#FFFFFF;fontColor=#FFFFFF;fontSize=14;fontStyle=1" vertex="1" parent="K6WiDuYZHgRzSPWKhzfV-1">
          <mxGeometry x="2920" y="6440" width="200" height="80" as="geometry" />
        </mxCell>
        <mxCell id="K6WiDuYZHgRzSPWKhzfV-138" value="User" style="rounded=1;whiteSpace=wrap;html=1;fillColor=#663300;strokeColor=#FFFFFF;fontColor=#FFFFFF;fontSize=14;fontStyle=1" vertex="1" parent="K6WiDuYZHgRzSPWKhzfV-1">
          <mxGeometry x="2420" y="6050" width="50" height="50" as="geometry" />
        </mxCell>
        <mxCell id="K6WiDuYZHgRzSPWKhzfV-139" value="Comment Updated" style="rounded=1;whiteSpace=wrap;html=1;fillColor=#CC6600;strokeColor=#FFFFFF;fontColor=#FFFFFF;fontSize=14;fontStyle=1" vertex="1" parent="K6WiDuYZHgRzSPWKhzfV-1">
          <mxGeometry x="2920" y="6240" width="200" height="80" as="geometry" />
        </mxCell>
        <mxCell id="K6WiDuYZHgRzSPWKhzfV-140" value="Moderator" style="rounded=1;whiteSpace=wrap;html=1;fillColor=#663300;strokeColor=#FFFFFF;fontColor=#FFFFFF;fontSize=14;fontStyle=1" vertex="1" parent="K6WiDuYZHgRzSPWKhzfV-1">
          <mxGeometry x="2420" y="7570" width="120" height="50" as="geometry" />
        </mxCell>
        <mxCell id="K6WiDuYZHgRzSPWKhzfV-141" value="Report Created" style="rounded=1;whiteSpace=wrap;html=1;fillColor=#CC6600;strokeColor=#FFFFFF;fontColor=#FFFFFF;fontSize=14;fontStyle=1" vertex="1" parent="K6WiDuYZHgRzSPWKhzfV-1">
          <mxGeometry x="2920" y="7280" width="200" height="80" as="geometry" />
        </mxCell>
        <mxCell id="K6WiDuYZHgRzSPWKhzfV-142" value="Report Approved" style="rounded=1;whiteSpace=wrap;html=1;fillColor=#CC6600;strokeColor=#FFFFFF;fontColor=#FFFFFF;fontSize=14;fontStyle=1" vertex="1" parent="K6WiDuYZHgRzSPWKhzfV-1">
          <mxGeometry x="2920" y="7520" width="200" height="80" as="geometry" />
        </mxCell>
        <mxCell id="K6WiDuYZHgRzSPWKhzfV-143" value="Report Rejected" style="rounded=1;whiteSpace=wrap;html=1;fillColor=#CC6600;strokeColor=#FFFFFF;fontColor=#FFFFFF;fontSize=14;fontStyle=1" vertex="1" parent="K6WiDuYZHgRzSPWKhzfV-1">
          <mxGeometry x="2920" y="7720" width="200" height="80" as="geometry" />
        </mxCell>
        <mxCell id="K6WiDuYZHgRzSPWKhzfV-144" value="&lt;div&gt;&lt;span&gt;&lt;font&gt;process of creating comment&lt;br&gt;&lt;/font&gt;&lt;/span&gt;&lt;/div&gt;" style="rounded=1;whiteSpace=wrap;html=1;fillColor=#67AB89;strokeColor=#FFFFFF;fontColor=#FFFFFF;fontSize=14;fontStyle=1" vertex="1" parent="K6WiDuYZHgRzSPWKhzfV-1">
          <mxGeometry x="2200" y="5920" width="2000" height="40" as="geometry" />
        </mxCell>
        <mxCell id="K6WiDuYZHgRzSPWKhzfV-145" value="the one when user successfully create comment" style="rounded=1;whiteSpace=wrap;html=1;fillColor=#000033;strokeColor=#FFFFFF;fontColor=#FFFFFF;fontSize=14;fontStyle=1" vertex="1" parent="K6WiDuYZHgRzSPWKhzfV-1">
          <mxGeometry x="2200" y="6000" width="200" height="80" as="geometry" />
        </mxCell>
        <mxCell id="K6WiDuYZHgRzSPWKhzfV-146" value="&lt;div&gt;&lt;span&gt;&lt;font&gt;process of updating comment&lt;br&gt;&lt;/font&gt;&lt;/span&gt;&lt;/div&gt;" style="rounded=1;whiteSpace=wrap;html=1;fillColor=#67AB89;strokeColor=#FFFFFF;fontColor=#FFFFFF;fontSize=14;fontStyle=1" vertex="1" parent="K6WiDuYZHgRzSPWKhzfV-1">
          <mxGeometry x="2200" y="6160" width="2000" height="40" as="geometry" />
        </mxCell>
        <mxCell id="K6WiDuYZHgRzSPWKhzfV-147" value="Update Comment" style="rounded=1;whiteSpace=wrap;html=1;fillColor=#007FFF;strokeColor=#FFFFFF;fontColor=#FFFFFF;fontSize=14;fontStyle=1" vertex="1" parent="K6WiDuYZHgRzSPWKhzfV-1">
          <mxGeometry x="2440" y="6240" width="200" height="80" as="geometry" />
        </mxCell>
        <mxCell id="K6WiDuYZHgRzSPWKhzfV-148" value="User" style="rounded=1;whiteSpace=wrap;html=1;fillColor=#663300;strokeColor=#FFFFFF;fontColor=#FFFFFF;fontSize=14;fontStyle=1" vertex="1" parent="K6WiDuYZHgRzSPWKhzfV-1">
          <mxGeometry x="2420" y="6290" width="50" height="50" as="geometry" />
        </mxCell>
        <mxCell id="K6WiDuYZHgRzSPWKhzfV-149" value="the one when user successfully udate comment" style="rounded=1;whiteSpace=wrap;html=1;fillColor=#000033;strokeColor=#FFFFFF;fontColor=#FFFFFF;fontSize=14;fontStyle=1" vertex="1" parent="K6WiDuYZHgRzSPWKhzfV-1">
          <mxGeometry x="2200" y="6240" width="200" height="80" as="geometry" />
        </mxCell>
        <mxCell id="K6WiDuYZHgRzSPWKhzfV-150" value="comment exists" style="rounded=1;whiteSpace=wrap;html=1;fillColor=#211100;strokeColor=#FFFFFF;fontColor=#FFFFFF;fontSize=14;fontStyle=1" vertex="1" parent="K6WiDuYZHgRzSPWKhzfV-1">
          <mxGeometry x="2680" y="6240" width="200" height="30" as="geometry" />
        </mxCell>
        <mxCell id="K6WiDuYZHgRzSPWKhzfV-151" value="comment is not marked as deleted" style="rounded=1;whiteSpace=wrap;html=1;fillColor=#211100;strokeColor=#FFFFFF;fontColor=#FFFFFF;fontSize=14;fontStyle=1" vertex="1" parent="K6WiDuYZHgRzSPWKhzfV-1">
          <mxGeometry x="2680" y="6280" width="200" height="30" as="geometry" />
        </mxCell>
        <mxCell id="K6WiDuYZHgRzSPWKhzfV-152" value="&lt;div&gt;&lt;span&gt;&lt;font&gt;process of removing comment&lt;br&gt;&lt;/font&gt;&lt;/span&gt;&lt;/div&gt;" style="rounded=1;whiteSpace=wrap;html=1;fillColor=#67AB89;strokeColor=#FFFFFF;fontColor=#FFFFFF;fontSize=14;fontStyle=1" vertex="1" parent="K6WiDuYZHgRzSPWKhzfV-1">
          <mxGeometry x="2200" y="6360" width="2000" height="40" as="geometry" />
        </mxCell>
        <mxCell id="K6WiDuYZHgRzSPWKhzfV-153" value="Remove Comment" style="rounded=1;whiteSpace=wrap;html=1;fillColor=#007FFF;strokeColor=#FFFFFF;fontColor=#FFFFFF;fontSize=14;fontStyle=1" vertex="1" parent="K6WiDuYZHgRzSPWKhzfV-1">
          <mxGeometry x="2440" y="6440" width="200" height="80" as="geometry" />
        </mxCell>
        <mxCell id="K6WiDuYZHgRzSPWKhzfV-154" value="User" style="rounded=1;whiteSpace=wrap;html=1;fillColor=#663300;strokeColor=#FFFFFF;fontColor=#FFFFFF;fontSize=14;fontStyle=1" vertex="1" parent="K6WiDuYZHgRzSPWKhzfV-1">
          <mxGeometry x="2420" y="6490" width="50" height="50" as="geometry" />
        </mxCell>
        <mxCell id="K6WiDuYZHgRzSPWKhzfV-155" value="the one when user successfully remove comment" style="rounded=1;whiteSpace=wrap;html=1;fillColor=#000033;strokeColor=#FFFFFF;fontColor=#FFFFFF;fontSize=14;fontStyle=1" vertex="1" parent="K6WiDuYZHgRzSPWKhzfV-1">
          <mxGeometry x="2200" y="6440" width="200" height="80" as="geometry" />
        </mxCell>
        <mxCell id="K6WiDuYZHgRzSPWKhzfV-156" value="comment exists" style="rounded=1;whiteSpace=wrap;html=1;fillColor=#211100;strokeColor=#FFFFFF;fontColor=#FFFFFF;fontSize=14;fontStyle=1" vertex="1" parent="K6WiDuYZHgRzSPWKhzfV-1">
          <mxGeometry x="2680" y="6440" width="200" height="30" as="geometry" />
        </mxCell>
        <mxCell id="K6WiDuYZHgRzSPWKhzfV-157" value="comment is not marked as deleted" style="rounded=1;whiteSpace=wrap;html=1;fillColor=#211100;strokeColor=#FFFFFF;fontColor=#FFFFFF;fontSize=14;fontStyle=1" vertex="1" parent="K6WiDuYZHgRzSPWKhzfV-1">
          <mxGeometry x="2680" y="6480" width="200" height="30" as="geometry" />
        </mxCell>
        <mxCell id="K6WiDuYZHgRzSPWKhzfV-158" value="Comment Hidden" style="rounded=1;whiteSpace=wrap;html=1;fillColor=#CC6600;strokeColor=#FFFFFF;fontColor=#FFFFFF;fontSize=14;fontStyle=1" vertex="1" parent="K6WiDuYZHgRzSPWKhzfV-1">
          <mxGeometry x="3400" y="6640" width="200" height="80" as="geometry" />
        </mxCell>
        <mxCell id="K6WiDuYZHgRzSPWKhzfV-159" value="&lt;div&gt;&lt;span&gt;&lt;font&gt;process of hidding comment&lt;br&gt;&lt;/font&gt;&lt;/span&gt;&lt;/div&gt;" style="rounded=1;whiteSpace=wrap;html=1;fillColor=#67AB89;strokeColor=#FFFFFF;fontColor=#FFFFFF;fontSize=14;fontStyle=1" vertex="1" parent="K6WiDuYZHgRzSPWKhzfV-1">
          <mxGeometry x="2200" y="6560" width="2000" height="40" as="geometry" />
        </mxCell>
        <mxCell id="K6WiDuYZHgRzSPWKhzfV-160" style="edgeStyle=orthogonalEdgeStyle;rounded=0;orthogonalLoop=1;jettySize=auto;html=1;" edge="1" parent="K6WiDuYZHgRzSPWKhzfV-1" source="K6WiDuYZHgRzSPWKhzfV-161">
          <mxGeometry relative="1" as="geometry">
            <mxPoint x="3160" y="6680" as="targetPoint" />
          </mxGeometry>
        </mxCell>
        <mxCell id="K6WiDuYZHgRzSPWKhzfV-161" value="Hide Comment" style="rounded=1;whiteSpace=wrap;html=1;fillColor=#007FFF;strokeColor=#FFFFFF;fontColor=#FFFFFF;fontSize=14;fontStyle=1" vertex="1" parent="K6WiDuYZHgRzSPWKhzfV-1">
          <mxGeometry x="2920" y="6640" width="200" height="80" as="geometry" />
        </mxCell>
        <mxCell id="K6WiDuYZHgRzSPWKhzfV-162" value="the one when moderator successfully hide comment" style="rounded=1;whiteSpace=wrap;html=1;fillColor=#000033;strokeColor=#FFFFFF;fontColor=#FFFFFF;fontSize=14;fontStyle=1" vertex="1" parent="K6WiDuYZHgRzSPWKhzfV-1">
          <mxGeometry x="2200" y="6640" width="200" height="80" as="geometry" />
        </mxCell>
        <mxCell id="K6WiDuYZHgRzSPWKhzfV-163" value="comment exists" style="rounded=1;whiteSpace=wrap;html=1;fillColor=#211100;strokeColor=#FFFFFF;fontColor=#FFFFFF;fontSize=14;fontStyle=1" vertex="1" parent="K6WiDuYZHgRzSPWKhzfV-1">
          <mxGeometry x="3160" y="6640" width="200" height="30" as="geometry" />
        </mxCell>
        <mxCell id="K6WiDuYZHgRzSPWKhzfV-164" value="comment is not marked as deleted" style="rounded=1;whiteSpace=wrap;html=1;fillColor=#211100;strokeColor=#FFFFFF;fontColor=#FFFFFF;fontSize=14;fontStyle=1" vertex="1" parent="K6WiDuYZHgRzSPWKhzfV-1">
          <mxGeometry x="3160" y="6680" width="200" height="30" as="geometry" />
        </mxCell>
        <mxCell id="K6WiDuYZHgRzSPWKhzfV-165" value="Comment Restored" style="rounded=1;whiteSpace=wrap;html=1;fillColor=#CC6600;strokeColor=#FFFFFF;fontColor=#FFFFFF;fontSize=14;fontStyle=1" vertex="1" parent="K6WiDuYZHgRzSPWKhzfV-1">
          <mxGeometry x="2920" y="7040" width="200" height="80" as="geometry" />
        </mxCell>
        <mxCell id="K6WiDuYZHgRzSPWKhzfV-166" value="&lt;div&gt;&lt;span&gt;&lt;font&gt;process of restoring comment&lt;br&gt;&lt;/font&gt;&lt;/span&gt;&lt;/div&gt;" style="rounded=1;whiteSpace=wrap;html=1;fillColor=#67AB89;strokeColor=#FFFFFF;fontColor=#FFFFFF;fontSize=14;fontStyle=1" vertex="1" parent="K6WiDuYZHgRzSPWKhzfV-1">
          <mxGeometry x="2200" y="6960" width="2000" height="40" as="geometry" />
        </mxCell>
        <mxCell id="K6WiDuYZHgRzSPWKhzfV-167" value="Restore Comment" style="rounded=1;whiteSpace=wrap;html=1;fillColor=#007FFF;strokeColor=#FFFFFF;fontColor=#FFFFFF;fontSize=14;fontStyle=1" vertex="1" parent="K6WiDuYZHgRzSPWKhzfV-1">
          <mxGeometry x="2440" y="7040" width="200" height="80" as="geometry" />
        </mxCell>
        <mxCell id="K6WiDuYZHgRzSPWKhzfV-168" value="the one when moderator successfully restore comment" style="rounded=1;whiteSpace=wrap;html=1;fillColor=#000033;strokeColor=#FFFFFF;fontColor=#FFFFFF;fontSize=14;fontStyle=1" vertex="1" parent="K6WiDuYZHgRzSPWKhzfV-1">
          <mxGeometry x="2200" y="7040" width="200" height="80" as="geometry" />
        </mxCell>
        <mxCell id="K6WiDuYZHgRzSPWKhzfV-169" value="comment exists" style="rounded=1;whiteSpace=wrap;html=1;fillColor=#211100;strokeColor=#FFFFFF;fontColor=#FFFFFF;fontSize=14;fontStyle=1" vertex="1" parent="K6WiDuYZHgRzSPWKhzfV-1">
          <mxGeometry x="2680" y="7040" width="200" height="30" as="geometry" />
        </mxCell>
        <mxCell id="K6WiDuYZHgRzSPWKhzfV-170" value="comment is not marked as deleted" style="rounded=1;whiteSpace=wrap;html=1;fillColor=#211100;strokeColor=#FFFFFF;fontColor=#FFFFFF;fontSize=14;fontStyle=1" vertex="1" parent="K6WiDuYZHgRzSPWKhzfV-1">
          <mxGeometry x="2680" y="7080" width="200" height="30" as="geometry" />
        </mxCell>
        <mxCell id="K6WiDuYZHgRzSPWKhzfV-171" value="comment is not hidden" style="rounded=1;whiteSpace=wrap;html=1;fillColor=#211100;strokeColor=#FFFFFF;fontColor=#FFFFFF;fontSize=14;fontStyle=1" vertex="1" parent="K6WiDuYZHgRzSPWKhzfV-1">
          <mxGeometry x="3160" y="6720" width="200" height="30" as="geometry" />
        </mxCell>
        <mxCell id="K6WiDuYZHgRzSPWKhzfV-172" value="comment is hidden" style="rounded=1;whiteSpace=wrap;html=1;fillColor=#211100;strokeColor=#FFFFFF;fontColor=#FFFFFF;fontSize=14;fontStyle=1" vertex="1" parent="K6WiDuYZHgRzSPWKhzfV-1">
          <mxGeometry x="2680" y="7120" width="200" height="30" as="geometry" />
        </mxCell>
        <mxCell id="K6WiDuYZHgRzSPWKhzfV-173" value="Create Report" style="rounded=1;whiteSpace=wrap;html=1;fillColor=#007FFF;strokeColor=#FFFFFF;fontColor=#FFFFFF;fontSize=14;fontStyle=1" vertex="1" parent="K6WiDuYZHgRzSPWKhzfV-1">
          <mxGeometry x="2440" y="7280" width="200" height="80" as="geometry" />
        </mxCell>
        <mxCell id="K6WiDuYZHgRzSPWKhzfV-174" value="User" style="rounded=1;whiteSpace=wrap;html=1;fillColor=#663300;strokeColor=#FFFFFF;fontColor=#FFFFFF;fontSize=14;fontStyle=1" vertex="1" parent="K6WiDuYZHgRzSPWKhzfV-1">
          <mxGeometry x="2420" y="7330" width="50" height="50" as="geometry" />
        </mxCell>
        <mxCell id="K6WiDuYZHgRzSPWKhzfV-175" value="&lt;div&gt;&lt;span&gt;&lt;font&gt;process of creating comment&#39;s report&lt;br&gt;&lt;/font&gt;&lt;/span&gt;&lt;/div&gt;" style="rounded=1;whiteSpace=wrap;html=1;fillColor=#67AB89;strokeColor=#FFFFFF;fontColor=#FFFFFF;fontSize=14;fontStyle=1" vertex="1" parent="K6WiDuYZHgRzSPWKhzfV-1">
          <mxGeometry x="2200" y="7200" width="2000" height="40" as="geometry" />
        </mxCell>
        <mxCell id="K6WiDuYZHgRzSPWKhzfV-176" value="the one when user successfully create comment&#39;s report" style="rounded=1;whiteSpace=wrap;html=1;fillColor=#000033;strokeColor=#FFFFFF;fontColor=#FFFFFF;fontSize=14;fontStyle=1" vertex="1" parent="K6WiDuYZHgRzSPWKhzfV-1">
          <mxGeometry x="2200" y="7280" width="200" height="80" as="geometry" />
        </mxCell>
        <mxCell id="K6WiDuYZHgRzSPWKhzfV-177" value="&lt;div&gt;&lt;span&gt;&lt;font&gt;process of approving comment&#39;s report&lt;br&gt;&lt;/font&gt;&lt;/span&gt;&lt;/div&gt;" style="rounded=1;whiteSpace=wrap;html=1;fillColor=#67AB89;strokeColor=#FFFFFF;fontColor=#FFFFFF;fontSize=14;fontStyle=1" vertex="1" parent="K6WiDuYZHgRzSPWKhzfV-1">
          <mxGeometry x="2200" y="7440" width="2000" height="40" as="geometry" />
        </mxCell>
        <mxCell id="K6WiDuYZHgRzSPWKhzfV-178" value="the one when moderator successfully approve report" style="rounded=1;whiteSpace=wrap;html=1;fillColor=#000033;strokeColor=#FFFFFF;fontColor=#FFFFFF;fontSize=14;fontStyle=1" vertex="1" parent="K6WiDuYZHgRzSPWKhzfV-1">
          <mxGeometry x="2200" y="7520" width="200" height="80" as="geometry" />
        </mxCell>
        <mxCell id="K6WiDuYZHgRzSPWKhzfV-179" value="report is not resolved" style="rounded=1;whiteSpace=wrap;html=1;fillColor=#211100;strokeColor=#FFFFFF;fontColor=#FFFFFF;fontSize=14;fontStyle=1" vertex="1" parent="K6WiDuYZHgRzSPWKhzfV-1">
          <mxGeometry x="2680" y="7520" width="200" height="30" as="geometry" />
        </mxCell>
        <mxCell id="K6WiDuYZHgRzSPWKhzfV-180" value="comment exists" style="rounded=1;whiteSpace=wrap;html=1;fillColor=#211100;strokeColor=#FFFFFF;fontColor=#FFFFFF;fontSize=14;fontStyle=1" vertex="1" parent="K6WiDuYZHgRzSPWKhzfV-1">
          <mxGeometry x="2680" y="7280" width="200" height="30" as="geometry" />
        </mxCell>
        <mxCell id="K6WiDuYZHgRzSPWKhzfV-181" value="Reject Report" style="rounded=1;whiteSpace=wrap;html=1;fillColor=#007FFF;strokeColor=#FFFFFF;fontColor=#FFFFFF;fontSize=14;fontStyle=1" vertex="1" parent="K6WiDuYZHgRzSPWKhzfV-1">
          <mxGeometry x="2440" y="7720" width="200" height="80" as="geometry" />
        </mxCell>
        <mxCell id="K6WiDuYZHgRzSPWKhzfV-182" value="Moderator" style="rounded=1;whiteSpace=wrap;html=1;fillColor=#663300;strokeColor=#FFFFFF;fontColor=#FFFFFF;fontSize=14;fontStyle=1" vertex="1" parent="K6WiDuYZHgRzSPWKhzfV-1">
          <mxGeometry x="2420" y="7770" width="120" height="50" as="geometry" />
        </mxCell>
        <mxCell id="K6WiDuYZHgRzSPWKhzfV-183" value="&lt;div&gt;&lt;span&gt;&lt;font&gt;process of approving comment&#39;s report&lt;br&gt;&lt;/font&gt;&lt;/span&gt;&lt;/div&gt;" style="rounded=1;whiteSpace=wrap;html=1;fillColor=#67AB89;strokeColor=#FFFFFF;fontColor=#FFFFFF;fontSize=14;fontStyle=1" vertex="1" parent="K6WiDuYZHgRzSPWKhzfV-1">
          <mxGeometry x="2200" y="7640" width="2000" height="40" as="geometry" />
        </mxCell>
        <mxCell id="K6WiDuYZHgRzSPWKhzfV-184" value="the one when moderator successfully reject report" style="rounded=1;whiteSpace=wrap;html=1;fillColor=#000033;strokeColor=#FFFFFF;fontColor=#FFFFFF;fontSize=14;fontStyle=1" vertex="1" parent="K6WiDuYZHgRzSPWKhzfV-1">
          <mxGeometry x="2200" y="7720" width="200" height="80" as="geometry" />
        </mxCell>
        <mxCell id="K6WiDuYZHgRzSPWKhzfV-185" value="report is not resolved" style="rounded=1;whiteSpace=wrap;html=1;fillColor=#211100;strokeColor=#FFFFFF;fontColor=#FFFFFF;fontSize=14;fontStyle=1" vertex="1" parent="K6WiDuYZHgRzSPWKhzfV-1">
          <mxGeometry x="2680" y="7720" width="200" height="30" as="geometry" />
        </mxCell>
        <mxCell id="K6WiDuYZHgRzSPWKhzfV-186" value="Moderator" style="rounded=1;whiteSpace=wrap;html=1;fillColor=#663300;strokeColor=#FFFFFF;fontColor=#FFFFFF;fontSize=14;fontStyle=1" vertex="1" parent="K6WiDuYZHgRzSPWKhzfV-1">
          <mxGeometry x="2420" y="7090" width="120" height="50" as="geometry" />
        </mxCell>
        <mxCell id="K6WiDuYZHgRzSPWKhzfV-187" value="Moderator" style="rounded=1;whiteSpace=wrap;html=1;fillColor=#663300;strokeColor=#FFFFFF;fontColor=#FFFFFF;fontSize=14;fontStyle=1" vertex="1" parent="K6WiDuYZHgRzSPWKhzfV-1">
          <mxGeometry x="2900" y="6700" width="120" height="50" as="geometry" />
        </mxCell>
        <mxCell id="K6WiDuYZHgRzSPWKhzfV-188" value="the one when system successfully hide comment" style="rounded=1;whiteSpace=wrap;html=1;fillColor=#000033;strokeColor=#FFFFFF;fontColor=#FFFFFF;fontSize=14;fontStyle=1" vertex="1" parent="K6WiDuYZHgRzSPWKhzfV-1">
          <mxGeometry x="2200" y="6800" width="200" height="80" as="geometry" />
        </mxCell>
        <mxCell id="K6WiDuYZHgRzSPWKhzfV-189" value="Report Approved" style="rounded=1;whiteSpace=wrap;html=1;fillColor=#CC6600;strokeColor=#FFFFFF;fontColor=#FFFFFF;fontSize=14;fontStyle=1" vertex="1" parent="K6WiDuYZHgRzSPWKhzfV-1">
          <mxGeometry x="2440" y="6800" width="200" height="80" as="geometry" />
        </mxCell>
        <mxCell id="K6WiDuYZHgRzSPWKhzfV-190" style="edgeStyle=orthogonalEdgeStyle;rounded=0;orthogonalLoop=1;jettySize=auto;html=1;entryX=0;entryY=0;entryDx=0;entryDy=0;" edge="1" parent="K6WiDuYZHgRzSPWKhzfV-1" source="K6WiDuYZHgRzSPWKhzfV-191" target="K6WiDuYZHgRzSPWKhzfV-164">
          <mxGeometry relative="1" as="geometry">
            <mxPoint x="3150" y="6680" as="targetPoint" />
            <Array as="points">
              <mxPoint x="3140" y="6840" />
              <mxPoint x="3140" y="6680" />
            </Array>
          </mxGeometry>
        </mxCell>
        <mxCell id="K6WiDuYZHgRzSPWKhzfV-191" value="Hide Comment" style="rounded=1;whiteSpace=wrap;html=1;fillColor=#007FFF;strokeColor=#FFFFFF;fontColor=#FFFFFF;fontSize=14;fontStyle=1" vertex="1" parent="K6WiDuYZHgRzSPWKhzfV-1">
          <mxGeometry x="2920" y="6800" width="200" height="80" as="geometry" />
        </mxCell>
      </root>
    </mxGraphModel>
  </diagram>
  <diagram name="ES_designModeling" id="zOHZWgMQLz84CMEiAYLq">
    <mxGraphModel dx="3129" dy="-5772" grid="1" gridSize="10" guides="1" tooltips="1" connect="1" arrows="1" fold="1" page="1" pageScale="1" pageWidth="827" pageHeight="1169" math="0" shadow="0">
      <root>
        <mxCell id="XkaoKHVsZs2eHQkHxGgm-0" />
        <mxCell id="XkaoKHVsZs2eHQkHxGgm-1" parent="XkaoKHVsZs2eHQkHxGgm-0" />
        <mxCell id="XkaoKHVsZs2eHQkHxGgm-192" value="Feedback&amp;nbsp; Bounded Context" style="swimlane;whiteSpace=wrap;html=1;fontSize=14;fontStyle=1" vertex="1" parent="XkaoKHVsZs2eHQkHxGgm-1">
          <mxGeometry x="1720" y="8240" width="2840" height="1090" as="geometry">
            <mxRectangle x="-3700" y="-1130" width="150" height="30" as="alternateBounds" />
          </mxGeometry>
        </mxCell>
        <mxCell id="XkaoKHVsZs2eHQkHxGgm-193" value="Reaction Subdomain" style="swimlane;whiteSpace=wrap;html=1;fontSize=14;fontStyle=1" vertex="1" parent="XkaoKHVsZs2eHQkHxGgm-192">
          <mxGeometry x="40" y="40" width="840" height="490" as="geometry">
            <mxRectangle x="40" y="40" width="170" height="30" as="alternateBounds" />
          </mxGeometry>
        </mxCell>
        <mxCell id="XkaoKHVsZs2eHQkHxGgm-194" value="Reaction Aggregate" style="swimlane;whiteSpace=wrap;html=1;fontSize=14;fontStyle=1" vertex="1" parent="XkaoKHVsZs2eHQkHxGgm-193">
          <mxGeometry x="40" y="40" width="760" height="410" as="geometry" />
        </mxCell>
        <mxCell id="XkaoKHVsZs2eHQkHxGgm-195" value="Reaction" style="rounded=1;whiteSpace=wrap;html=1;fillColor=#663300;strokeColor=#FFFFFF;fontColor=#FFFFFF;fontSize=14;fontStyle=1" vertex="1" parent="XkaoKHVsZs2eHQkHxGgm-194">
          <mxGeometry x="280" y="40" width="200" height="80" as="geometry" />
        </mxCell>
        <mxCell id="XkaoKHVsZs2eHQkHxGgm-196" value="Add Reaction" style="rounded=1;whiteSpace=wrap;html=1;fillColor=#007FFF;strokeColor=#FFFFFF;fontColor=#FFFFFF;fontSize=14;fontStyle=1" vertex="1" parent="XkaoKHVsZs2eHQkHxGgm-194">
          <mxGeometry x="40" y="40" width="200" height="80" as="geometry" />
        </mxCell>
        <mxCell id="XkaoKHVsZs2eHQkHxGgm-197" value="Remove Reaction" style="rounded=1;whiteSpace=wrap;html=1;fillColor=#007FFF;strokeColor=#FFFFFF;fontColor=#FFFFFF;fontSize=14;fontStyle=1" vertex="1" parent="XkaoKHVsZs2eHQkHxGgm-194">
          <mxGeometry x="40" y="160" width="200" height="80" as="geometry" />
        </mxCell>
        <mxCell id="XkaoKHVsZs2eHQkHxGgm-198" value="Reaction Created" style="rounded=1;whiteSpace=wrap;html=1;fillColor=#CC6600;strokeColor=#FFFFFF;fontColor=#FFFFFF;fontSize=14;fontStyle=1" vertex="1" parent="XkaoKHVsZs2eHQkHxGgm-194">
          <mxGeometry x="520" y="40" width="200" height="80" as="geometry" />
        </mxCell>
        <mxCell id="XkaoKHVsZs2eHQkHxGgm-199" value="Reaction Added" style="rounded=1;whiteSpace=wrap;html=1;fillColor=#CC6600;strokeColor=#FFFFFF;fontColor=#FFFFFF;fontSize=14;fontStyle=1" vertex="1" parent="XkaoKHVsZs2eHQkHxGgm-194">
          <mxGeometry x="520" y="160" width="200" height="80" as="geometry" />
        </mxCell>
        <mxCell id="XkaoKHVsZs2eHQkHxGgm-200" value="Reaction Removed" style="rounded=1;whiteSpace=wrap;html=1;fillColor=#CC6600;strokeColor=#FFFFFF;fontColor=#FFFFFF;fontSize=14;fontStyle=1" vertex="1" parent="XkaoKHVsZs2eHQkHxGgm-194">
          <mxGeometry x="520" y="290" width="200" height="80" as="geometry" />
        </mxCell>
        <mxCell id="XkaoKHVsZs2eHQkHxGgm-201" value="Rating Subdomain" style="swimlane;whiteSpace=wrap;html=1;fontSize=14;fontStyle=1" vertex="1" parent="XkaoKHVsZs2eHQkHxGgm-192">
          <mxGeometry x="40" y="560" width="840" height="490" as="geometry">
            <mxRectangle x="40" y="40" width="170" height="30" as="alternateBounds" />
          </mxGeometry>
        </mxCell>
        <mxCell id="XkaoKHVsZs2eHQkHxGgm-202" value="Raiting Aggregate" style="swimlane;whiteSpace=wrap;html=1;fontSize=14;fontStyle=1" vertex="1" parent="XkaoKHVsZs2eHQkHxGgm-201">
          <mxGeometry x="40" y="40" width="760" height="410" as="geometry" />
        </mxCell>
        <mxCell id="XkaoKHVsZs2eHQkHxGgm-203" value="Rating" style="rounded=1;whiteSpace=wrap;html=1;fillColor=#663300;strokeColor=#FFFFFF;fontColor=#FFFFFF;fontSize=14;fontStyle=1" vertex="1" parent="XkaoKHVsZs2eHQkHxGgm-202">
          <mxGeometry x="280" y="40" width="200" height="80" as="geometry" />
        </mxCell>
        <mxCell id="XkaoKHVsZs2eHQkHxGgm-204" value="Remove Rating" style="rounded=1;whiteSpace=wrap;html=1;fillColor=#007FFF;strokeColor=#FFFFFF;fontColor=#FFFFFF;fontSize=14;fontStyle=1" vertex="1" parent="XkaoKHVsZs2eHQkHxGgm-202">
          <mxGeometry x="40" y="160" width="200" height="80" as="geometry" />
        </mxCell>
        <mxCell id="XkaoKHVsZs2eHQkHxGgm-205" value="Upsert Rating" style="rounded=1;whiteSpace=wrap;html=1;fillColor=#007FFF;strokeColor=#FFFFFF;fontColor=#FFFFFF;fontSize=14;fontStyle=1" vertex="1" parent="XkaoKHVsZs2eHQkHxGgm-202">
          <mxGeometry x="40" y="40" width="200" height="80" as="geometry" />
        </mxCell>
        <mxCell id="XkaoKHVsZs2eHQkHxGgm-206" value="Rating Created" style="rounded=1;whiteSpace=wrap;html=1;fillColor=#CC6600;strokeColor=#FFFFFF;fontColor=#FFFFFF;fontSize=14;fontStyle=1" vertex="1" parent="XkaoKHVsZs2eHQkHxGgm-202">
          <mxGeometry x="520" y="40" width="200" height="80" as="geometry" />
        </mxCell>
        <mxCell id="XkaoKHVsZs2eHQkHxGgm-207" value="Rating Updated" style="rounded=1;whiteSpace=wrap;html=1;fillColor=#CC6600;strokeColor=#FFFFFF;fontColor=#FFFFFF;fontSize=14;fontStyle=1" vertex="1" parent="XkaoKHVsZs2eHQkHxGgm-202">
          <mxGeometry x="520" y="160" width="200" height="80" as="geometry" />
        </mxCell>
        <mxCell id="XkaoKHVsZs2eHQkHxGgm-208" value="Rating Removed" style="rounded=1;whiteSpace=wrap;html=1;fillColor=#CC6600;strokeColor=#FFFFFF;fontColor=#FFFFFF;fontSize=14;fontStyle=1" vertex="1" parent="XkaoKHVsZs2eHQkHxGgm-202">
          <mxGeometry x="520" y="290" width="200" height="80" as="geometry" />
        </mxCell>
        <mxCell id="XkaoKHVsZs2eHQkHxGgm-209" value="Comment Subdomain" style="swimlane;whiteSpace=wrap;html=1;fontSize=14;fontStyle=1" vertex="1" parent="XkaoKHVsZs2eHQkHxGgm-192">
          <mxGeometry x="920" y="40" width="1880" height="720" as="geometry">
            <mxRectangle x="40" y="40" width="170" height="30" as="alternateBounds" />
          </mxGeometry>
        </mxCell>
        <mxCell id="XkaoKHVsZs2eHQkHxGgm-210" value="Comment Aggregate" style="swimlane;whiteSpace=wrap;html=1;fontSize=14;fontStyle=1" vertex="1" parent="XkaoKHVsZs2eHQkHxGgm-209">
          <mxGeometry x="40" y="40" width="760" height="640" as="geometry">
            <mxRectangle x="880" y="40" width="170" height="30" as="alternateBounds" />
          </mxGeometry>
        </mxCell>
        <mxCell id="XkaoKHVsZs2eHQkHxGgm-211" value="Comment" style="rounded=1;whiteSpace=wrap;html=1;fillColor=#663300;strokeColor=#FFFFFF;fontColor=#FFFFFF;fontSize=14;fontStyle=1" vertex="1" parent="XkaoKHVsZs2eHQkHxGgm-210">
          <mxGeometry x="280" y="40" width="200" height="80" as="geometry" />
        </mxCell>
        <mxCell id="XkaoKHVsZs2eHQkHxGgm-212" value="Create Comment" style="rounded=1;whiteSpace=wrap;html=1;fillColor=#007FFF;strokeColor=#FFFFFF;fontColor=#FFFFFF;fontSize=14;fontStyle=1" vertex="1" parent="XkaoKHVsZs2eHQkHxGgm-210">
          <mxGeometry x="40" y="40" width="200" height="80" as="geometry" />
        </mxCell>
        <mxCell id="XkaoKHVsZs2eHQkHxGgm-213" value="Update Comment" style="rounded=1;whiteSpace=wrap;html=1;fillColor=#007FFF;strokeColor=#FFFFFF;fontColor=#FFFFFF;fontSize=14;fontStyle=1" vertex="1" parent="XkaoKHVsZs2eHQkHxGgm-210">
          <mxGeometry x="40" y="160" width="200" height="80" as="geometry" />
        </mxCell>
        <mxCell id="XkaoKHVsZs2eHQkHxGgm-214" value="Comment Created" style="rounded=1;whiteSpace=wrap;html=1;fillColor=#CC6600;strokeColor=#FFFFFF;fontColor=#FFFFFF;fontSize=14;fontStyle=1" vertex="1" parent="XkaoKHVsZs2eHQkHxGgm-210">
          <mxGeometry x="520" y="40" width="200" height="80" as="geometry" />
        </mxCell>
        <mxCell id="XkaoKHVsZs2eHQkHxGgm-215" value="Comment Updated" style="rounded=1;whiteSpace=wrap;html=1;fillColor=#CC6600;strokeColor=#FFFFFF;fontColor=#FFFFFF;fontSize=14;fontStyle=1" vertex="1" parent="XkaoKHVsZs2eHQkHxGgm-210">
          <mxGeometry x="520" y="160" width="200" height="80" as="geometry" />
        </mxCell>
        <mxCell id="XkaoKHVsZs2eHQkHxGgm-216" value="Comment Hidden" style="rounded=1;whiteSpace=wrap;html=1;fillColor=#CC6600;strokeColor=#FFFFFF;fontColor=#FFFFFF;fontSize=14;fontStyle=1" vertex="1" parent="XkaoKHVsZs2eHQkHxGgm-210">
          <mxGeometry x="520" y="400" width="200" height="80" as="geometry" />
        </mxCell>
        <mxCell id="XkaoKHVsZs2eHQkHxGgm-217" value="Comment Restored" style="rounded=1;whiteSpace=wrap;html=1;fillColor=#CC6600;strokeColor=#FFFFFF;fontColor=#FFFFFF;fontSize=14;fontStyle=1" vertex="1" parent="XkaoKHVsZs2eHQkHxGgm-210">
          <mxGeometry x="520" y="520" width="200" height="80" as="geometry" />
        </mxCell>
        <mxCell id="XkaoKHVsZs2eHQkHxGgm-218" value="Hide Comment" style="rounded=1;whiteSpace=wrap;html=1;fillColor=#007FFF;strokeColor=#FFFFFF;fontColor=#FFFFFF;fontSize=14;fontStyle=1" vertex="1" parent="XkaoKHVsZs2eHQkHxGgm-210">
          <mxGeometry x="40" y="400" width="200" height="80" as="geometry" />
        </mxCell>
        <mxCell id="XkaoKHVsZs2eHQkHxGgm-219" value="Restore Comment" style="rounded=1;whiteSpace=wrap;html=1;fillColor=#007FFF;strokeColor=#FFFFFF;fontColor=#FFFFFF;fontSize=14;fontStyle=1" vertex="1" parent="XkaoKHVsZs2eHQkHxGgm-210">
          <mxGeometry x="40" y="520" width="200" height="80" as="geometry" />
        </mxCell>
        <mxCell id="XkaoKHVsZs2eHQkHxGgm-220" value="Remove Comment" style="rounded=1;whiteSpace=wrap;html=1;fillColor=#007FFF;strokeColor=#FFFFFF;fontColor=#FFFFFF;fontSize=14;fontStyle=1" vertex="1" parent="XkaoKHVsZs2eHQkHxGgm-210">
          <mxGeometry x="40" y="280" width="200" height="80" as="geometry" />
        </mxCell>
        <mxCell id="XkaoKHVsZs2eHQkHxGgm-221" value="Comment Removed" style="rounded=1;whiteSpace=wrap;html=1;fillColor=#CC6600;strokeColor=#FFFFFF;fontColor=#FFFFFF;fontSize=14;fontStyle=1" vertex="1" parent="XkaoKHVsZs2eHQkHxGgm-210">
          <mxGeometry x="520" y="280" width="200" height="80" as="geometry" />
        </mxCell>
        <mxCell id="XkaoKHVsZs2eHQkHxGgm-222" value="Context events invoke other Context&lt;br&gt;&lt;div&gt;(Eventually&amp;nbsp; consistent)&lt;/div&gt;" style="rounded=1;whiteSpace=wrap;html=1;fillColor=#3D1F00;strokeColor=#FFFFFF;fontColor=#FFFFFF;fontSize=14;fontStyle=1" vertex="1" parent="XkaoKHVsZs2eHQkHxGgm-209">
          <mxGeometry x="840" y="270" width="200" height="80" as="geometry" />
        </mxCell>
        <mxCell id="XkaoKHVsZs2eHQkHxGgm-223" value="Report Aggregate" style="swimlane;whiteSpace=wrap;html=1;fontSize=14;fontStyle=1" vertex="1" parent="XkaoKHVsZs2eHQkHxGgm-1">
          <mxGeometry x="3720" y="8320" width="760" height="440" as="geometry" />
        </mxCell>
        <mxCell id="XkaoKHVsZs2eHQkHxGgm-224" value="Report" style="rounded=1;whiteSpace=wrap;html=1;fillColor=#663300;strokeColor=#FFFFFF;fontColor=#FFFFFF;fontSize=14;fontStyle=1" vertex="1" parent="XkaoKHVsZs2eHQkHxGgm-223">
          <mxGeometry x="280" y="40" width="200" height="80" as="geometry" />
        </mxCell>
        <mxCell id="XkaoKHVsZs2eHQkHxGgm-225" value="Create Report" style="rounded=1;whiteSpace=wrap;html=1;fillColor=#007FFF;strokeColor=#FFFFFF;fontColor=#FFFFFF;fontSize=14;fontStyle=1" vertex="1" parent="XkaoKHVsZs2eHQkHxGgm-223">
          <mxGeometry x="40" y="40" width="200" height="80" as="geometry" />
        </mxCell>
        <mxCell id="XkaoKHVsZs2eHQkHxGgm-226" value="Approve Report" style="rounded=1;whiteSpace=wrap;html=1;fillColor=#007FFF;strokeColor=#FFFFFF;fontColor=#FFFFFF;fontSize=14;fontStyle=1" vertex="1" parent="XkaoKHVsZs2eHQkHxGgm-223">
          <mxGeometry x="40" y="160" width="200" height="80" as="geometry" />
        </mxCell>
        <mxCell id="XkaoKHVsZs2eHQkHxGgm-227" value="Reject Report" style="rounded=1;whiteSpace=wrap;html=1;fillColor=#007FFF;strokeColor=#FFFFFF;fontColor=#FFFFFF;fontSize=14;fontStyle=1" vertex="1" parent="XkaoKHVsZs2eHQkHxGgm-223">
          <mxGeometry x="40" y="280" width="200" height="80" as="geometry" />
        </mxCell>
        <mxCell id="XkaoKHVsZs2eHQkHxGgm-228" value="Report Created" style="rounded=1;whiteSpace=wrap;html=1;fillColor=#CC6600;strokeColor=#FFFFFF;fontColor=#FFFFFF;fontSize=14;fontStyle=1" vertex="1" parent="XkaoKHVsZs2eHQkHxGgm-223">
          <mxGeometry x="520" y="40" width="200" height="80" as="geometry" />
        </mxCell>
        <mxCell id="XkaoKHVsZs2eHQkHxGgm-229" value="Report Approved" style="rounded=1;whiteSpace=wrap;html=1;fillColor=#CC6600;strokeColor=#FFFFFF;fontColor=#FFFFFF;fontSize=14;fontStyle=1" vertex="1" parent="XkaoKHVsZs2eHQkHxGgm-223">
          <mxGeometry x="520" y="160" width="200" height="80" as="geometry" />
        </mxCell>
        <mxCell id="XkaoKHVsZs2eHQkHxGgm-230" value="Report Rejected" style="rounded=1;whiteSpace=wrap;html=1;fillColor=#CC6600;strokeColor=#FFFFFF;fontColor=#FFFFFF;fontSize=14;fontStyle=1" vertex="1" parent="XkaoKHVsZs2eHQkHxGgm-223">
          <mxGeometry x="520" y="280" width="200" height="80" as="geometry" />
        </mxCell>
        <mxCell id="XkaoKHVsZs2eHQkHxGgm-231" style="edgeStyle=orthogonalEdgeStyle;rounded=0;orthogonalLoop=1;jettySize=auto;html=1;entryX=1;entryY=0.5;entryDx=0;entryDy=0;" edge="1" parent="XkaoKHVsZs2eHQkHxGgm-1" source="XkaoKHVsZs2eHQkHxGgm-223" target="XkaoKHVsZs2eHQkHxGgm-210">
          <mxGeometry relative="1" as="geometry" />
        </mxCell>
      </root>
    </mxGraphModel>
  </diagram>
  <diagram id="f8RzPRviFvx0FjwxshnT" name="legend">
    <mxGraphModel dx="1674" dy="844" grid="1" gridSize="10" guides="1" tooltips="1" connect="1" arrows="1" fold="1" page="1" pageScale="1" pageWidth="827" pageHeight="1169" math="0" shadow="0">
      <root>
        <mxCell id="0" />
        <mxCell id="1" parent="0" />
        <object placeholders="1" label="&lt;font style=&quot;font-size: 16px&quot;&gt;&lt;b&gt;&lt;div style=&quot;text-align: left&quot;&gt;%top%&lt;/div&gt;&lt;/b&gt;&lt;/font&gt;&lt;div style=&quot;text-align: left&quot;&gt;%bottom%&lt;/div&gt;" top="Legend" bottom="" id="piFIB613wwgbDMk1B_sW-38">
          <mxCell style="rounded=1;fontSize=11;whiteSpace=wrap;html=1;dashed=1;arcSize=20;fillColor=none;strokeColor=#666666;fontColor=#333333;labelBackgroundColor=none;align=left;verticalAlign=bottom;labelBorderColor=none;spacingTop=0;spacing=10;dashPattern=8 4;metaEdit=1;rotatable=0;perimeter=rectanglePerimeter;noLabel=0;labelPadding=0;allowArrows=0;connectable=0;expand=0;recursiveResize=0;editable=1;pointerEvents=0;absoluteArcSize=1;points=[[0.25,0,0],[0.5,0,0],[0.75,0,0],[1,0.25,0],[1,0.5,0],[1,0.75,0],[0.75,1,0],[0.5,1,0],[0.25,1,0],[0,0.75,0],[0,0.5,0],[0,0.25,0]];" parent="1" vertex="1">
            <mxGeometry x="40" y="40" width="1120" height="440" as="geometry" />
          </mxCell>
        </object>
        <object placeholders="1" c4Name="Person" c4Type="Person" c4Description="" label="&lt;font style=&quot;font-size: 16px&quot;&gt;&lt;b&gt;%c4Name%&lt;/b&gt;&lt;/font&gt;&lt;div&gt;[%c4Type%]&lt;/div&gt;&lt;br&gt;&lt;div&gt;&lt;font style=&quot;font-size: 11px&quot;&gt;&lt;font color=&quot;#cccccc&quot;&gt;%c4Description%&lt;/font&gt;&lt;/div&gt;" id="piFIB613wwgbDMk1B_sW-39">
          <mxCell style="html=1;fontSize=11;dashed=0;whiteSpace=wrap;fillColor=#083F75;strokeColor=#06315C;fontColor=#ffffff;shape=mxgraph.c4.person2;align=center;metaEdit=1;points=[[0.5,0,0],[1,0.5,0],[1,0.75,0],[0.75,1,0],[0.5,1,0],[0.25,1,0],[0,0.75,0],[0,0.5,0]];resizable=0;" parent="1" vertex="1">
            <mxGeometry x="80" y="89" width="200" height="180" as="geometry" />
          </mxCell>
        </object>
        <object placeholders="1" c4Name="System" c4Type="Software System" c4Description="" label="&lt;font style=&quot;font-size: 16px&quot;&gt;&lt;b&gt;%c4Name%&lt;/b&gt;&lt;/font&gt;&lt;div&gt;[%c4Type%]&lt;/div&gt;&lt;br&gt;&lt;div&gt;&lt;font style=&quot;font-size: 11px&quot;&gt;&lt;font color=&quot;#cccccc&quot;&gt;%c4Description%&lt;/font&gt;&lt;/div&gt;" id="piFIB613wwgbDMk1B_sW-40">
          <mxCell style="rounded=1;whiteSpace=wrap;html=1;labelBackgroundColor=none;fillColor=#1061B0;fontColor=#ffffff;align=center;arcSize=10;strokeColor=#0D5091;metaEdit=1;resizable=0;points=[[0.25,0,0],[0.5,0,0],[0.75,0,0],[1,0.25,0],[1,0.5,0],[1,0.75,0],[0.75,1,0],[0.5,1,0],[0.25,1,0],[0,0.75,0],[0,0.5,0],[0,0.25,0]];" parent="1" vertex="1">
            <mxGeometry x="320" y="120" width="240" height="120" as="geometry" />
          </mxCell>
        </object>
        <object placeholders="1" c4Name="External system" c4Type="Software System" c4Description="" label="&lt;font style=&quot;font-size: 16px&quot;&gt;&lt;b&gt;%c4Name%&lt;/b&gt;&lt;/font&gt;&lt;div&gt;[%c4Type%]&lt;/div&gt;&lt;br&gt;&lt;div&gt;&lt;font style=&quot;font-size: 11px&quot;&gt;&lt;font color=&quot;#cccccc&quot;&gt;%c4Description%&lt;/font&gt;&lt;/div&gt;" id="piFIB613wwgbDMk1B_sW-41">
          <mxCell style="rounded=1;whiteSpace=wrap;html=1;labelBackgroundColor=none;fillColor=#8C8496;fontColor=#ffffff;align=center;arcSize=10;strokeColor=#736782;metaEdit=1;resizable=0;points=[[0.25,0,0],[0.5,0,0],[0.75,0,0],[1,0.25,0],[1,0.5,0],[1,0.75,0],[0.75,1,0],[0.5,1,0],[0.25,1,0],[0,0.75,0],[0,0.5,0],[0,0.25,0]];" parent="1" vertex="1">
            <mxGeometry x="600" y="120" width="240" height="120" as="geometry" />
          </mxCell>
        </object>
        <object placeholders="1" c4Name="Container" c4Type="Container" c4Technology="" c4Description="" label="&lt;font style=&quot;font-size: 16px&quot;&gt;&lt;b&gt;%c4Name%&lt;/b&gt;&lt;/font&gt;&lt;div&gt;[%c4Type%%c4Technology%]&lt;/div&gt;&lt;br&gt;&lt;div&gt;&lt;font style=&quot;font-size: 11px&quot;&gt;&lt;font color=&quot;#E6E6E6&quot;&gt;%c4Description%&lt;/font&gt;&lt;/div&gt;" id="piFIB613wwgbDMk1B_sW-42">
          <mxCell style="rounded=1;whiteSpace=wrap;html=1;fontSize=11;labelBackgroundColor=none;fillColor=#23A2D9;fontColor=#ffffff;align=center;arcSize=10;strokeColor=#0E7DAD;metaEdit=1;resizable=0;points=[[0.25,0,0],[0.5,0,0],[0.75,0,0],[1,0.25,0],[1,0.5,0],[1,0.75,0],[0.75,1,0],[0.5,1,0],[0.25,1,0],[0,0.75,0],[0,0.5,0],[0,0.25,0]];" parent="1" vertex="1">
            <mxGeometry x="880" y="120" width="240" height="120" as="geometry" />
          </mxCell>
        </object>
        <object placeholders="1" c4Name="Storage" c4Type="Container" c4Technology="" c4Description="" label="&lt;font style=&quot;font-size: 16px&quot;&gt;&lt;b&gt;%c4Name%&lt;/b&gt;&lt;/font&gt;&lt;div&gt;[%c4Type%%c4Technology%]&lt;/div&gt;&lt;br&gt;&lt;div&gt;&lt;font style=&quot;font-size: 11px&quot;&gt;&lt;font color=&quot;#E6E6E6&quot;&gt;%c4Description%&lt;/font&gt;&lt;/div&gt;" id="piFIB613wwgbDMk1B_sW-43">
          <mxCell style="shape=cylinder3;size=15;whiteSpace=wrap;html=1;boundedLbl=1;rounded=0;labelBackgroundColor=none;fillColor=#23A2D9;fontSize=12;fontColor=#ffffff;align=center;strokeColor=#0E7DAD;metaEdit=1;points=[[0.5,0,0],[1,0.25,0],[1,0.5,0],[1,0.75,0],[0.5,1,0],[0,0.75,0],[0,0.5,0],[0,0.25,0]];resizable=0;" parent="1" vertex="1">
            <mxGeometry x="320" y="280" width="240" height="120" as="geometry" />
          </mxCell>
        </object>
        <object placeholders="1" c4Name="Message Bus" c4Type="Container" c4Technology="" c4Description="" label="&lt;font style=&quot;font-size: 16px&quot;&gt;&lt;b&gt;%c4Name%&lt;/b&gt;&lt;/font&gt;&lt;div&gt;[%c4Type%%c4Technology%]&lt;/div&gt;&lt;br&gt;&lt;div&gt;&lt;font style=&quot;font-size: 11px&quot;&gt;&lt;font color=&quot;#E6E6E6&quot;&gt;%c4Description%&lt;/font&gt;&lt;/div&gt;" id="piFIB613wwgbDMk1B_sW-44">
          <mxCell style="shape=cylinder3;size=15;direction=south;whiteSpace=wrap;html=1;boundedLbl=1;rounded=0;labelBackgroundColor=none;fillColor=#23A2D9;fontSize=12;fontColor=#ffffff;align=center;strokeColor=#0E7DAD;metaEdit=1;points=[[0.5,0,0],[1,0.25,0],[1,0.5,0],[1,0.75,0],[0.5,1,0],[0,0.75,0],[0,0.5,0],[0,0.25,0]];resizable=0;" parent="1" vertex="1">
            <mxGeometry x="600" y="280" width="240" height="120" as="geometry" />
          </mxCell>
        </object>
        <object placeholders="1" c4Name="Web browser container" c4Type="Container" c4Technology="" c4Description="" label="&lt;font style=&quot;font-size: 16px&quot;&gt;&lt;b&gt;%c4Name%&lt;/b&gt;&lt;/font&gt;&lt;div&gt;[%c4Type%%c4Technology%]&lt;/div&gt;&lt;br&gt;&lt;div&gt;&lt;font style=&quot;font-size: 11px&quot;&gt;&lt;font color=&quot;#E6E6E6&quot;&gt;%c4Description%&lt;/font&gt;&lt;/div&gt;" id="piFIB613wwgbDMk1B_sW-45">
          <mxCell style="shape=mxgraph.c4.webBrowserContainer2;whiteSpace=wrap;html=1;boundedLbl=1;rounded=0;labelBackgroundColor=none;strokeColor=#118ACD;fillColor=#23A2D9;strokeColor=#118ACD;strokeColor2=#0E7DAD;fontSize=12;fontColor=#ffffff;align=center;metaEdit=1;points=[[0.5,0,0],[1,0.25,0],[1,0.5,0],[1,0.75,0],[0.5,1,0],[0,0.75,0],[0,0.5,0],[0,0.25,0]];resizable=0;" parent="1" vertex="1">
            <mxGeometry x="880" y="280" width="240" height="160" as="geometry" />
          </mxCell>
        </object>
      </root>
    </mxGraphModel>
  </diagram>
  <diagram name="systemContext_feedbackSystem" id="WcdvjJeJplrOcA5wXfvf">
    <mxGraphModel dx="1674" dy="844" grid="1" gridSize="10" guides="1" tooltips="1" connect="1" arrows="1" fold="1" page="1" pageScale="1" pageWidth="827" pageHeight="1169" math="0" shadow="0">
      <root>
        <mxCell id="_sVSWJ4QDfecYqiopI3F-0" />
        <mxCell id="_sVSWJ4QDfecYqiopI3F-1" parent="_sVSWJ4QDfecYqiopI3F-0" />
        <object placeholders="1" label="&lt;font style=&quot;font-size: 16px&quot;&gt;&lt;b&gt;&lt;div style=&quot;text-align: left&quot;&gt;%top%&lt;/div&gt;&lt;/b&gt;&lt;/font&gt;&lt;div style=&quot;text-align: left&quot;&gt;%bottom%&lt;/div&gt;" top="[System Context] Feedback System" bottom="" id="_sVSWJ4QDfecYqiopI3F-2">
          <mxCell style="rounded=1;fontSize=11;whiteSpace=wrap;html=1;dashed=1;arcSize=20;fillColor=none;strokeColor=#666666;fontColor=#333333;labelBackgroundColor=none;align=left;verticalAlign=bottom;labelBorderColor=none;spacingTop=0;spacing=10;dashPattern=8 4;metaEdit=1;rotatable=0;perimeter=rectanglePerimeter;noLabel=0;labelPadding=0;allowArrows=0;connectable=0;expand=0;recursiveResize=0;editable=1;pointerEvents=0;absoluteArcSize=1;points=[[0.25,0,0],[0.5,0,0],[0.75,0,0],[1,0.25,0],[1,0.5,0],[1,0.75,0],[0.75,1,0],[0.5,1,0],[0.25,1,0],[0,0.75,0],[0,0.5,0],[0,0.25,0]];" parent="_sVSWJ4QDfecYqiopI3F-1" vertex="1">
            <mxGeometry x="40" y="200" width="760" height="560" as="geometry" />
          </mxCell>
        </object>
        <object placeholders="1" c4Name="User" c4Type="Person" c4Description="" label="&lt;font style=&quot;font-size: 16px&quot;&gt;&lt;b&gt;%c4Name%&lt;/b&gt;&lt;/font&gt;&lt;div&gt;[%c4Type%]&lt;/div&gt;&lt;br&gt;&lt;div&gt;&lt;font style=&quot;font-size: 11px&quot;&gt;&lt;font color=&quot;#cccccc&quot;&gt;%c4Description%&lt;/font&gt;&lt;/div&gt;" id="_sVSWJ4QDfecYqiopI3F-3">
          <mxCell style="html=1;fontSize=11;dashed=0;whiteSpace=wrap;fillColor=#083F75;strokeColor=#06315C;fontColor=#ffffff;shape=mxgraph.c4.person2;align=center;metaEdit=1;points=[[0.5,0,0],[1,0.5,0],[1,0.75,0],[0.75,1,0],[0.5,1,0],[0.25,1,0],[0,0.75,0],[0,0.5,0]];resizable=0;" parent="_sVSWJ4QDfecYqiopI3F-1" vertex="1">
            <mxGeometry x="100" y="250" width="200" height="180" as="geometry" />
          </mxCell>
        </object>
        <object placeholders="1" c4Name="Feedback System" c4Type="Software System" c4Description="Allows user to add: reactions, ratings and comments." label="&lt;font style=&quot;font-size: 16px&quot;&gt;&lt;b&gt;%c4Name%&lt;/b&gt;&lt;/font&gt;&lt;div&gt;[%c4Type%]&lt;/div&gt;&lt;br&gt;&lt;div&gt;&lt;font style=&quot;font-size: 11px&quot;&gt;&lt;font color=&quot;#cccccc&quot;&gt;%c4Description%&lt;/font&gt;&lt;/div&gt;" id="_sVSWJ4QDfecYqiopI3F-5">
          <mxCell style="rounded=1;whiteSpace=wrap;html=1;labelBackgroundColor=none;fillColor=#1061B0;fontColor=#ffffff;align=center;arcSize=10;strokeColor=#0D5091;metaEdit=1;resizable=0;points=[[0.25,0,0],[0.5,0,0],[0.75,0,0],[1,0.25,0],[1,0.5,0],[1,0.75,0],[0.75,1,0],[0.5,1,0],[0.25,1,0],[0,0.75,0],[0,0.5,0],[0,0.25,0]];" parent="_sVSWJ4QDfecYqiopI3F-1" vertex="1">
            <mxGeometry x="80" y="560" width="240" height="120" as="geometry" />
          </mxCell>
        </object>
        <object placeholders="1" c4Type="Relationship" c4Description="authenticate" label="&lt;div style=&quot;text-align: left&quot;&gt;&lt;div style=&quot;text-align: center&quot;&gt;&lt;b&gt;%c4Description%&lt;/b&gt;&lt;/div&gt;" id="_sVSWJ4QDfecYqiopI3F-7">
          <mxCell style="endArrow=blockThin;html=1;fontSize=10;fontColor=#404040;strokeWidth=1;endFill=1;strokeColor=#828282;elbow=vertical;metaEdit=1;endSize=14;startSize=14;jumpStyle=arc;jumpSize=16;rounded=0;edgeStyle=orthogonalEdgeStyle;exitX=1;exitY=0.5;exitDx=0;exitDy=0;exitPerimeter=0;entryX=0;entryY=0.5;entryDx=0;entryDy=0;entryPerimeter=0;" parent="_sVSWJ4QDfecYqiopI3F-1" source="_sVSWJ4QDfecYqiopI3F-3" edge="1">
            <mxGeometry width="240" relative="1" as="geometry">
              <mxPoint x="230" y="480" as="sourcePoint" />
              <mxPoint x="520" y="340" as="targetPoint" />
              <mxPoint as="offset" />
            </mxGeometry>
          </mxCell>
        </object>
        <object placeholders="1" c4Type="Relationship" c4Description="uses" label="&lt;div style=&quot;text-align: left&quot;&gt;&lt;div style=&quot;text-align: center&quot;&gt;&lt;b&gt;%c4Description%&lt;/b&gt;&lt;/div&gt;" id="_sVSWJ4QDfecYqiopI3F-8">
          <mxCell style="endArrow=blockThin;html=1;fontSize=10;fontColor=#404040;strokeWidth=1;endFill=1;strokeColor=#828282;elbow=vertical;metaEdit=1;endSize=14;startSize=14;jumpStyle=arc;jumpSize=16;rounded=0;edgeStyle=orthogonalEdgeStyle;exitX=0.5;exitY=1;exitDx=0;exitDy=0;exitPerimeter=0;entryX=0.5;entryY=0;entryDx=0;entryDy=0;entryPerimeter=0;" parent="_sVSWJ4QDfecYqiopI3F-1" source="_sVSWJ4QDfecYqiopI3F-3" target="_sVSWJ4QDfecYqiopI3F-5" edge="1">
            <mxGeometry width="240" relative="1" as="geometry">
              <mxPoint x="310" y="360" as="sourcePoint" />
              <mxPoint x="460" y="360" as="targetPoint" />
              <mxPoint as="offset" />
            </mxGeometry>
          </mxCell>
        </object>
        <object placeholders="1" c4Type="Relationship" c4Description="take keys" label="&lt;div style=&quot;text-align: left&quot;&gt;&lt;div style=&quot;text-align: center&quot;&gt;&lt;b&gt;%c4Description%&lt;/b&gt;&lt;/div&gt;" id="_sVSWJ4QDfecYqiopI3F-23">
          <mxCell style="endArrow=blockThin;html=1;fontSize=10;fontColor=#404040;strokeWidth=1;endFill=1;strokeColor=#828282;elbow=vertical;metaEdit=1;endSize=14;startSize=14;jumpStyle=arc;jumpSize=16;rounded=0;edgeStyle=orthogonalEdgeStyle;entryX=0.75;entryY=1;entryDx=0;entryDy=0;entryPerimeter=0;exitX=1;exitY=0.5;exitDx=0;exitDy=0;exitPerimeter=0;" parent="_sVSWJ4QDfecYqiopI3F-1" source="_sVSWJ4QDfecYqiopI3F-5" edge="1">
            <mxGeometry width="240" relative="1" as="geometry">
              <mxPoint x="470" y="510" as="sourcePoint" />
              <mxPoint x="700" y="400" as="targetPoint" />
              <Array as="points">
                <mxPoint x="700" y="620" />
              </Array>
              <mxPoint as="offset" />
            </mxGeometry>
          </mxCell>
        </object>
        <object placeholders="1" c4Name="Identity and AccessManagement (IAM)" c4Type="Software System" c4Description="" label="&lt;font style=&quot;font-size: 16px&quot;&gt;&lt;b&gt;%c4Name%&lt;/b&gt;&lt;/font&gt;&lt;div&gt;[%c4Type%]&lt;/div&gt;&lt;br&gt;&lt;div&gt;&lt;font style=&quot;font-size: 11px&quot;&gt;&lt;font color=&quot;#cccccc&quot;&gt;%c4Description%&lt;/font&gt;&lt;/div&gt;" id="6giUvFQTsxkDQZ6AwvhS-0">
          <mxCell style="rounded=1;whiteSpace=wrap;html=1;labelBackgroundColor=none;fillColor=#8C8496;fontColor=#ffffff;align=center;arcSize=10;strokeColor=#736782;metaEdit=1;resizable=0;points=[[0.25,0,0],[0.5,0,0],[0.75,0,0],[1,0.25,0],[1,0.5,0],[1,0.75,0],[0.75,1,0],[0.5,1,0],[0.25,1,0],[0,0.75,0],[0,0.5,0],[0,0.25,0]];" parent="_sVSWJ4QDfecYqiopI3F-1" vertex="1">
            <mxGeometry x="520" y="280" width="240" height="120" as="geometry" />
          </mxCell>
        </object>
      </root>
    </mxGraphModel>
  </diagram>
  <diagram name="container_feedbackSystem" id="zB507_wXkUttSpOTmu6l">
    <mxGraphModel dx="847" dy="844" grid="1" gridSize="10" guides="1" tooltips="1" connect="1" arrows="1" fold="1" page="1" pageScale="1" pageWidth="827" pageHeight="1169" math="0" shadow="0">
      <root>
        <mxCell id="kTZhpltcJjkScarYb4B0-0" />
        <mxCell id="kTZhpltcJjkScarYb4B0-1" parent="kTZhpltcJjkScarYb4B0-0" />
        <object placeholders="1" c4Name="User" c4Type="Person" c4Description="" label="&lt;font style=&quot;font-size: 16px&quot;&gt;&lt;b&gt;%c4Name%&lt;/b&gt;&lt;/font&gt;&lt;div&gt;[%c4Type%]&lt;/div&gt;&lt;br&gt;&lt;div&gt;&lt;font style=&quot;font-size: 11px&quot;&gt;&lt;font color=&quot;#cccccc&quot;&gt;%c4Description%&lt;/font&gt;&lt;/div&gt;" id="kTZhpltcJjkScarYb4B0-11">
          <mxCell style="html=1;fontSize=11;dashed=0;whiteSpace=wrap;fillColor=#083F75;strokeColor=#06315C;fontColor=#ffffff;shape=mxgraph.c4.person2;align=center;metaEdit=1;points=[[0.5,0,0],[1,0.5,0],[1,0.75,0],[0.75,1,0],[0.5,1,0],[0.25,1,0],[0,0.75,0],[0,0.5,0]];resizable=0;" parent="kTZhpltcJjkScarYb4B0-1" vertex="1">
            <mxGeometry x="940" y="250" width="200" height="180" as="geometry" />
          </mxCell>
        </object>
        <object placeholders="1" c4Type="Relationship" c4Description="authenticate" label="&lt;div style=&quot;text-align: left&quot;&gt;&lt;div style=&quot;text-align: center&quot;&gt;&lt;b&gt;%c4Description%&lt;/b&gt;&lt;/div&gt;" id="kTZhpltcJjkScarYb4B0-14">
          <mxCell style="endArrow=blockThin;html=1;fontSize=10;fontColor=#404040;strokeWidth=1;endFill=1;strokeColor=#828282;elbow=vertical;metaEdit=1;endSize=14;startSize=14;jumpStyle=arc;jumpSize=16;rounded=0;edgeStyle=orthogonalEdgeStyle;exitX=1;exitY=0.5;exitDx=0;exitDy=0;exitPerimeter=0;entryX=0;entryY=0.5;entryDx=0;entryDy=0;entryPerimeter=0;" parent="kTZhpltcJjkScarYb4B0-1" source="kTZhpltcJjkScarYb4B0-11" edge="1">
            <mxGeometry width="240" relative="1" as="geometry">
              <mxPoint x="1070" y="480" as="sourcePoint" />
              <mxPoint x="1360" y="340" as="targetPoint" />
              <mxPoint as="offset" />
            </mxGeometry>
          </mxCell>
        </object>
        <object placeholders="1" c4Type="Relationship" c4Description="uses" label="&lt;div style=&quot;text-align: left&quot;&gt;&lt;div style=&quot;text-align: center&quot;&gt;&lt;b&gt;%c4Description%&lt;/b&gt;&lt;/div&gt;" id="kTZhpltcJjkScarYb4B0-15">
          <mxCell style="endArrow=blockThin;html=1;fontSize=10;fontColor=#404040;strokeWidth=1;endFill=1;strokeColor=#828282;elbow=vertical;metaEdit=1;endSize=14;startSize=14;jumpStyle=arc;jumpSize=16;rounded=0;edgeStyle=orthogonalEdgeStyle;exitX=0.5;exitY=1;exitDx=0;exitDy=0;exitPerimeter=0;entryX=0.5;entryY=0;entryDx=0;entryDy=0;entryPerimeter=0;" parent="kTZhpltcJjkScarYb4B0-1" source="kTZhpltcJjkScarYb4B0-11" target="kTZhpltcJjkScarYb4B0-21" edge="1">
            <mxGeometry width="240" relative="1" as="geometry">
              <mxPoint x="1150" y="360" as="sourcePoint" />
              <mxPoint x="1040" y="560" as="targetPoint" />
              <mxPoint as="offset" />
            </mxGeometry>
          </mxCell>
        </object>
        <object placeholders="1" label="&lt;font style=&quot;font-size: 16px&quot;&gt;&lt;b&gt;&lt;div style=&quot;text-align: left&quot;&gt;%top%&lt;/div&gt;&lt;/b&gt;&lt;/font&gt;&lt;div style=&quot;text-align: left&quot;&gt;%bottom%&lt;/div&gt;" top="[Container] Feedback System" bottom="" id="kTZhpltcJjkScarYb4B0-18">
          <mxCell style="rounded=1;fontSize=11;whiteSpace=wrap;html=1;dashed=1;arcSize=20;fillColor=none;strokeColor=#666666;fontColor=#333333;labelBackgroundColor=none;align=left;verticalAlign=bottom;labelBorderColor=none;spacingTop=0;spacing=10;dashPattern=8 4;metaEdit=1;rotatable=0;perimeter=rectanglePerimeter;noLabel=0;labelPadding=0;allowArrows=0;connectable=0;expand=0;recursiveResize=0;editable=1;pointerEvents=0;absoluteArcSize=1;points=[[0.25,0,0],[0.5,0,0],[0.75,0,0],[1,0.25,0],[1,0.5,0],[1,0.75,0],[0.75,1,0],[0.5,1,0],[0.25,1,0],[0,0.75,0],[0,0.5,0],[0,0.25,0]];" parent="kTZhpltcJjkScarYb4B0-1" vertex="1">
            <mxGeometry x="840" y="200" width="800" height="800" as="geometry" />
          </mxCell>
        </object>
        <object placeholders="1" label="&lt;font style=&quot;font-size: 16px&quot;&gt;&lt;b&gt;&lt;div style=&quot;text-align: left&quot;&gt;%top%&lt;/div&gt;&lt;/b&gt;&lt;/font&gt;&lt;div style=&quot;text-align: left&quot;&gt;%bottom%&lt;/div&gt;" top="Feedback System" bottom="[Software System]" id="kTZhpltcJjkScarYb4B0-19">
          <mxCell style="rounded=1;fontSize=11;whiteSpace=wrap;html=1;dashed=1;arcSize=20;fillColor=none;strokeColor=#666666;fontColor=#333333;labelBackgroundColor=none;align=left;verticalAlign=bottom;labelBorderColor=none;spacingTop=0;spacing=10;dashPattern=8 4;metaEdit=1;rotatable=0;perimeter=rectanglePerimeter;noLabel=0;labelPadding=0;allowArrows=0;connectable=0;expand=0;recursiveResize=0;editable=1;pointerEvents=0;absoluteArcSize=1;points=[[0.25,0,0],[0.5,0,0],[0.75,0,0],[1,0.25,0],[1,0.5,0],[1,0.75,0],[0.75,1,0],[0.5,1,0],[0.25,1,0],[0,0.75,0],[0,0.5,0],[0,0.25,0]];" parent="kTZhpltcJjkScarYb4B0-1" vertex="1">
            <mxGeometry x="880" y="480" width="640" height="440" as="geometry" />
          </mxCell>
        </object>
        <object placeholders="1" c4Name="Feedback Service" c4Type="Container" c4Technology="Spring" c4Description="Allows user to add: reactions, ratings and comments." label="&lt;font style=&quot;font-size: 16px&quot;&gt;&lt;b&gt;%c4Name%&lt;/b&gt;&lt;/font&gt;&lt;div&gt;[%c4Type%: %c4Technology%]&lt;/div&gt;&lt;br&gt;&lt;div&gt;&lt;font style=&quot;font-size: 11px&quot;&gt;&lt;font color=&quot;#E6E6E6&quot;&gt;%c4Description%&lt;/font&gt;&lt;/div&gt;" id="kTZhpltcJjkScarYb4B0-21">
          <mxCell style="rounded=1;whiteSpace=wrap;html=1;fontSize=11;labelBackgroundColor=none;fillColor=#23A2D9;fontColor=#ffffff;align=center;arcSize=10;strokeColor=#0E7DAD;metaEdit=1;resizable=0;points=[[0.25,0,0],[0.5,0,0],[0.75,0,0],[1,0.25,0],[1,0.5,0],[1,0.75,0],[0.75,1,0],[0.5,1,0],[0.25,1,0],[0,0.75,0],[0,0.5,0],[0,0.25,0]];" parent="kTZhpltcJjkScarYb4B0-1" vertex="1">
            <mxGeometry x="920" y="520" width="240" height="120" as="geometry" />
          </mxCell>
        </object>
        <object placeholders="1" c4Type="Relationship" c4Description="take keys" label="&lt;div style=&quot;text-align: left&quot;&gt;&lt;div style=&quot;text-align: center&quot;&gt;&lt;b&gt;%c4Description%&lt;/b&gt;&lt;/div&gt;" id="kTZhpltcJjkScarYb4B0-24">
          <mxCell style="endArrow=blockThin;html=1;fontSize=10;fontColor=#404040;strokeWidth=1;endFill=1;strokeColor=#828282;elbow=vertical;metaEdit=1;endSize=14;startSize=14;jumpStyle=arc;jumpSize=16;rounded=0;edgeStyle=orthogonalEdgeStyle;exitX=1;exitY=0.5;exitDx=0;exitDy=0;exitPerimeter=0;entryX=0.75;entryY=1;entryDx=0;entryDy=0;entryPerimeter=0;" parent="kTZhpltcJjkScarYb4B0-1" source="kTZhpltcJjkScarYb4B0-21" edge="1">
            <mxGeometry width="240" relative="1" as="geometry">
              <mxPoint x="1540" y="560" as="sourcePoint" />
              <mxPoint x="1540" y="400" as="targetPoint" />
              <Array as="points">
                <mxPoint x="1540" y="580" />
              </Array>
              <mxPoint as="offset" />
            </mxGeometry>
          </mxCell>
        </object>
        <object placeholders="1" c4Name="Identity and AccessManagement (IAM)" c4Type="Software System" c4Description="" label="&lt;font style=&quot;font-size: 16px&quot;&gt;&lt;b&gt;%c4Name%&lt;/b&gt;&lt;/font&gt;&lt;div&gt;[%c4Type%]&lt;/div&gt;&lt;br&gt;&lt;div&gt;&lt;font style=&quot;font-size: 11px&quot;&gt;&lt;font color=&quot;#cccccc&quot;&gt;%c4Description%&lt;/font&gt;&lt;/div&gt;" id="uS4d2pWNDR24CSEb4kSI-0">
          <mxCell style="rounded=1;whiteSpace=wrap;html=1;labelBackgroundColor=none;fillColor=#8C8496;fontColor=#ffffff;align=center;arcSize=10;strokeColor=#736782;metaEdit=1;resizable=0;points=[[0.25,0,0],[0.5,0,0],[0.75,0,0],[1,0.25,0],[1,0.5,0],[1,0.75,0],[0.75,1,0],[0.5,1,0],[0.25,1,0],[0,0.75,0],[0,0.5,0],[0,0.25,0]];" parent="kTZhpltcJjkScarYb4B0-1" vertex="1">
            <mxGeometry x="1360" y="280" width="240" height="120" as="geometry" />
          </mxCell>
        </object>
        <object placeholders="1" c4Name="NoSQL database" c4Type="Container" c4Technology="MongoDB" c4Description="" label="&lt;font style=&quot;font-size: 16px&quot;&gt;&lt;b&gt;%c4Name%&lt;/b&gt;&lt;/font&gt;&lt;div&gt;[%c4Type%:&amp;nbsp;%c4Technology%]&lt;/div&gt;&lt;br&gt;&lt;div&gt;&lt;font style=&quot;font-size: 11px&quot;&gt;&lt;font color=&quot;#E6E6E6&quot;&gt;%c4Description%&lt;/font&gt;&lt;/div&gt;" id="pjl0WIC2sORHjR8JA4fF-8">
          <mxCell style="shape=cylinder3;size=15;whiteSpace=wrap;html=1;boundedLbl=1;rounded=0;labelBackgroundColor=none;fillColor=#23A2D9;fontSize=12;fontColor=#ffffff;align=center;strokeColor=#0E7DAD;metaEdit=1;points=[[0.5,0,0],[1,0.25,0],[1,0.5,0],[1,0.75,0],[0.5,1,0],[0,0.75,0],[0,0.5,0],[0,0.25,0]];resizable=0;" parent="kTZhpltcJjkScarYb4B0-1" vertex="1">
            <mxGeometry x="920" y="720" width="240" height="120" as="geometry" />
          </mxCell>
        </object>
        <object placeholders="1" c4Name="Broker" c4Type="Container" c4Technology="Apache Kafka" c4Description="" label="&lt;font style=&quot;font-size: 16px&quot;&gt;&lt;b&gt;%c4Name%&lt;/b&gt;&lt;/font&gt;&lt;div&gt;[%c4Type%:&amp;nbsp;%c4Technology%]&lt;/div&gt;&lt;br&gt;&lt;div&gt;&lt;font style=&quot;font-size: 11px&quot;&gt;&lt;font color=&quot;#E6E6E6&quot;&gt;%c4Description%&lt;/font&gt;&lt;/div&gt;" id="pjl0WIC2sORHjR8JA4fF-9">
          <mxCell style="shape=cylinder3;size=15;direction=south;whiteSpace=wrap;html=1;boundedLbl=1;rounded=0;labelBackgroundColor=none;fillColor=#23A2D9;fontSize=12;fontColor=#ffffff;align=center;strokeColor=#0E7DAD;metaEdit=1;points=[[0.5,0,0],[1,0.25,0],[1,0.5,0],[1,0.75,0],[0.5,1,0],[0,0.75,0],[0,0.5,0],[0,0.25,0]];resizable=0;" parent="kTZhpltcJjkScarYb4B0-1" vertex="1">
            <mxGeometry x="1241" y="720" width="240" height="120" as="geometry" />
          </mxCell>
        </object>
        <mxCell id="pjl0WIC2sORHjR8JA4fF-10" style="edgeStyle=orthogonalEdgeStyle;rounded=0;orthogonalLoop=1;jettySize=auto;html=1;entryX=0.5;entryY=0;entryDx=0;entryDy=0;entryPerimeter=0;" parent="kTZhpltcJjkScarYb4B0-1" source="kTZhpltcJjkScarYb4B0-21" target="pjl0WIC2sORHjR8JA4fF-8" edge="1">
          <mxGeometry relative="1" as="geometry" />
        </mxCell>
        <mxCell id="pjl0WIC2sORHjR8JA4fF-11" value="read/write" style="edgeLabel;html=1;align=center;verticalAlign=middle;resizable=0;points=[];" parent="pjl0WIC2sORHjR8JA4fF-10" vertex="1" connectable="0">
          <mxGeometry x="-0.0309" relative="1" as="geometry">
            <mxPoint as="offset" />
          </mxGeometry>
        </mxCell>
        <mxCell id="pjl0WIC2sORHjR8JA4fF-13" style="edgeStyle=orthogonalEdgeStyle;rounded=0;orthogonalLoop=1;jettySize=auto;html=1;exitX=0.75;exitY=1;exitDx=0;exitDy=0;exitPerimeter=0;entryX=0;entryY=0.5;entryDx=0;entryDy=0;entryPerimeter=0;" parent="kTZhpltcJjkScarYb4B0-1" source="kTZhpltcJjkScarYb4B0-21" target="pjl0WIC2sORHjR8JA4fF-9" edge="1">
          <mxGeometry relative="1" as="geometry" />
        </mxCell>
        <mxCell id="pjl0WIC2sORHjR8JA4fF-14" value="Sending/Receiving Messages" style="edgeLabel;html=1;align=center;verticalAlign=middle;resizable=0;points=[];" parent="pjl0WIC2sORHjR8JA4fF-13" vertex="1" connectable="0">
          <mxGeometry x="0.1825" y="-3" relative="1" as="geometry">
            <mxPoint as="offset" />
          </mxGeometry>
        </mxCell>
      </root>
    </mxGraphModel>
  </diagram>
  <diagram name="component_textToSpeechSystem_synthesizer" id="mL9jMwiOwkznk3D4Ux2N">
    <mxGraphModel dx="712" dy="835" grid="1" gridSize="10" guides="1" tooltips="1" connect="1" arrows="1" fold="1" page="1" pageScale="1" pageWidth="827" pageHeight="1169" math="0" shadow="0">
      <root>
        <mxCell id="BX2joiUE_Fl3DRpkrzmP-0" />
        <mxCell id="BX2joiUE_Fl3DRpkrzmP-1" parent="BX2joiUE_Fl3DRpkrzmP-0" />
        <object placeholders="1" c4Name="User" c4Type="Person" c4Description="" label="&lt;font style=&quot;font-size: 16px&quot;&gt;&lt;b&gt;%c4Name%&lt;/b&gt;&lt;/font&gt;&lt;div&gt;[%c4Type%]&lt;/div&gt;&lt;br&gt;&lt;div&gt;&lt;font style=&quot;font-size: 11px&quot;&gt;&lt;font color=&quot;#cccccc&quot;&gt;%c4Description%&lt;/font&gt;&lt;/div&gt;" id="6oxGUcotTHgbZWISp_Xx-0">
          <mxCell style="html=1;fontSize=11;dashed=0;whiteSpace=wrap;fillColor=#083F75;strokeColor=#06315C;fontColor=#ffffff;shape=mxgraph.c4.person2;align=center;metaEdit=1;points=[[0.5,0,0],[1,0.5,0],[1,0.75,0],[0.75,1,0],[0.5,1,0],[0.25,1,0],[0,0.75,0],[0,0.5,0]];resizable=0;" parent="BX2joiUE_Fl3DRpkrzmP-1" vertex="1">
            <mxGeometry x="100" y="570" width="200" height="180" as="geometry" />
          </mxCell>
        </object>
        <object placeholders="1" c4Type="Relationship" c4Description="authenticate" label="&lt;div style=&quot;text-align: left&quot;&gt;&lt;div style=&quot;text-align: center&quot;&gt;&lt;b&gt;%c4Description%&lt;/b&gt;&lt;/div&gt;" id="6oxGUcotTHgbZWISp_Xx-1">
          <mxCell style="endArrow=blockThin;html=1;fontSize=10;fontColor=#404040;strokeWidth=1;endFill=1;strokeColor=#828282;elbow=vertical;metaEdit=1;endSize=14;startSize=14;jumpStyle=arc;jumpSize=16;rounded=0;edgeStyle=orthogonalEdgeStyle;exitX=1;exitY=0.5;exitDx=0;exitDy=0;exitPerimeter=0;entryX=0;entryY=0.5;entryDx=0;entryDy=0;entryPerimeter=0;" parent="BX2joiUE_Fl3DRpkrzmP-1" source="6oxGUcotTHgbZWISp_Xx-0" edge="1">
            <mxGeometry width="240" relative="1" as="geometry">
              <mxPoint x="230" y="800" as="sourcePoint" />
              <mxPoint x="520" y="660" as="targetPoint" />
              <mxPoint as="offset" />
            </mxGeometry>
          </mxCell>
        </object>
        <object placeholders="1" c4Type="Relationship" c4Description="uses" label="&lt;div style=&quot;text-align: left&quot;&gt;&lt;div style=&quot;text-align: center&quot;&gt;&lt;b&gt;%c4Description%&lt;/b&gt;&lt;/div&gt;" id="6oxGUcotTHgbZWISp_Xx-2">
          <mxCell style="endArrow=blockThin;html=1;fontSize=10;fontColor=#404040;strokeWidth=1;endFill=1;strokeColor=#828282;elbow=vertical;metaEdit=1;endSize=14;startSize=14;jumpStyle=arc;jumpSize=16;rounded=0;edgeStyle=orthogonalEdgeStyle;exitX=0.5;exitY=1;exitDx=0;exitDy=0;exitPerimeter=0;" parent="BX2joiUE_Fl3DRpkrzmP-1" source="6oxGUcotTHgbZWISp_Xx-0" edge="1">
            <mxGeometry width="240" relative="1" as="geometry">
              <mxPoint x="310" y="680" as="sourcePoint" />
              <mxPoint x="200" y="800" as="targetPoint" />
              <mxPoint as="offset" />
            </mxGeometry>
          </mxCell>
        </object>
        <object placeholders="1" label="&lt;font style=&quot;font-size: 16px&quot;&gt;&lt;b&gt;&lt;div style=&quot;text-align: left&quot;&gt;%top%&lt;/div&gt;&lt;/b&gt;&lt;/font&gt;&lt;div style=&quot;text-align: left&quot;&gt;%bottom%&lt;/div&gt;" top="[Component] Feedback Service" bottom="" id="6oxGUcotTHgbZWISp_Xx-3">
          <mxCell style="rounded=1;fontSize=11;whiteSpace=wrap;html=1;dashed=1;arcSize=20;fillColor=none;strokeColor=#666666;fontColor=#333333;labelBackgroundColor=none;align=left;verticalAlign=bottom;labelBorderColor=none;spacingTop=0;spacing=10;dashPattern=8 4;metaEdit=1;rotatable=0;perimeter=rectanglePerimeter;noLabel=0;labelPadding=0;allowArrows=0;connectable=0;expand=0;recursiveResize=0;editable=1;pointerEvents=0;absoluteArcSize=1;points=[[0.25,0,0],[0.5,0,0],[0.75,0,0],[1,0.25,0],[1,0.5,0],[1,0.75,0],[0.75,1,0],[0.5,1,0],[0.25,1,0],[0,0.75,0],[0,0.5,0],[0,0.25,0]];" parent="BX2joiUE_Fl3DRpkrzmP-1" vertex="1">
            <mxGeometry y="520" width="800" height="920" as="geometry" />
          </mxCell>
        </object>
        <object placeholders="1" label="&lt;font style=&quot;font-size: 16px&quot;&gt;&lt;b&gt;&lt;div style=&quot;text-align: left&quot;&gt;%top%&lt;/div&gt;&lt;/b&gt;&lt;/font&gt;&lt;div style=&quot;text-align: left&quot;&gt;%bottom%&lt;/div&gt;" top="Feedback Service" bottom="[Container]" id="6oxGUcotTHgbZWISp_Xx-4">
          <mxCell style="rounded=1;fontSize=11;whiteSpace=wrap;html=1;dashed=1;arcSize=20;fillColor=none;strokeColor=#666666;fontColor=#333333;labelBackgroundColor=none;align=left;verticalAlign=bottom;labelBorderColor=none;spacingTop=0;spacing=10;dashPattern=8 4;metaEdit=1;rotatable=0;perimeter=rectanglePerimeter;noLabel=0;labelPadding=0;allowArrows=0;connectable=0;expand=0;recursiveResize=0;editable=1;pointerEvents=0;absoluteArcSize=1;points=[[0.25,0,0],[0.5,0,0],[0.75,0,0],[1,0.25,0],[1,0.5,0],[1,0.75,0],[0.75,1,0],[0.5,1,0],[0.25,1,0],[0,0.75,0],[0,0.5,0],[0,0.25,0]];" parent="BX2joiUE_Fl3DRpkrzmP-1" vertex="1">
            <mxGeometry x="40" y="800" width="320" height="560" as="geometry" />
          </mxCell>
        </object>
        <object placeholders="1" c4Type="Relationship" c4Description="take keys" label="&lt;div style=&quot;text-align: left&quot;&gt;&lt;div style=&quot;text-align: center&quot;&gt;&lt;b&gt;%c4Description%&lt;/b&gt;&lt;/div&gt;" id="6oxGUcotTHgbZWISp_Xx-6">
          <mxCell style="endArrow=blockThin;html=1;fontSize=10;fontColor=#404040;strokeWidth=1;endFill=1;strokeColor=#828282;elbow=vertical;metaEdit=1;endSize=14;startSize=14;jumpStyle=arc;jumpSize=16;rounded=0;edgeStyle=orthogonalEdgeStyle;entryX=0.5;entryY=1;entryDx=0;entryDy=0;entryPerimeter=0;" parent="BX2joiUE_Fl3DRpkrzmP-1" target="6oxGUcotTHgbZWISp_Xx-7" edge="1">
            <mxGeometry width="240" relative="1" as="geometry">
              <mxPoint x="360" y="840" as="sourcePoint" />
              <mxPoint x="700" y="720" as="targetPoint" />
              <Array as="points">
                <mxPoint x="400" y="840" />
                <mxPoint x="400" y="770" />
                <mxPoint x="640" y="770" />
              </Array>
              <mxPoint as="offset" />
            </mxGeometry>
          </mxCell>
        </object>
        <object placeholders="1" c4Name="Identity and AccessManagement (IAM)" c4Type="Software System" c4Description="" label="&lt;font style=&quot;font-size: 16px&quot;&gt;&lt;b&gt;%c4Name%&lt;/b&gt;&lt;/font&gt;&lt;div&gt;[%c4Type%]&lt;/div&gt;&lt;br&gt;&lt;div&gt;&lt;font style=&quot;font-size: 11px&quot;&gt;&lt;font color=&quot;#cccccc&quot;&gt;%c4Description%&lt;/font&gt;&lt;/div&gt;" id="6oxGUcotTHgbZWISp_Xx-7">
          <mxCell style="rounded=1;whiteSpace=wrap;html=1;labelBackgroundColor=none;fillColor=#8C8496;fontColor=#ffffff;align=center;arcSize=10;strokeColor=#736782;metaEdit=1;resizable=0;points=[[0.25,0,0],[0.5,0,0],[0.75,0,0],[1,0.25,0],[1,0.5,0],[1,0.75,0],[0.75,1,0],[0.5,1,0],[0.25,1,0],[0,0.75,0],[0,0.5,0],[0,0.25,0]];" parent="BX2joiUE_Fl3DRpkrzmP-1" vertex="1">
            <mxGeometry x="520" y="600" width="240" height="120" as="geometry" />
          </mxCell>
        </object>
        <object placeholders="1" c4Name="NoSQL database" c4Type="Container" c4Technology="MongoDB" c4Description="" label="&lt;font style=&quot;font-size: 16px&quot;&gt;&lt;b&gt;%c4Name%&lt;/b&gt;&lt;/font&gt;&lt;div&gt;[%c4Type%:&amp;nbsp;%c4Technology%]&lt;/div&gt;&lt;br&gt;&lt;div&gt;&lt;font style=&quot;font-size: 11px&quot;&gt;&lt;font color=&quot;#E6E6E6&quot;&gt;%c4Description%&lt;/font&gt;&lt;/div&gt;" id="6oxGUcotTHgbZWISp_Xx-8">
          <mxCell style="shape=cylinder3;size=15;whiteSpace=wrap;html=1;boundedLbl=1;rounded=0;labelBackgroundColor=none;fillColor=#23A2D9;fontSize=12;fontColor=#ffffff;align=center;strokeColor=#0E7DAD;metaEdit=1;points=[[0.5,0,0],[1,0.25,0],[1,0.5,0],[1,0.75,0],[0.5,1,0],[0,0.75,0],[0,0.5,0],[0,0.25,0]];resizable=0;" parent="BX2joiUE_Fl3DRpkrzmP-1" vertex="1">
            <mxGeometry x="480" y="1160" width="240" height="120" as="geometry" />
          </mxCell>
        </object>
        <object placeholders="1" c4Name="Broker" c4Type="Container" c4Technology="Apache Kafka" c4Description="" label="&lt;font style=&quot;font-size: 16px&quot;&gt;&lt;b&gt;%c4Name%&lt;/b&gt;&lt;/font&gt;&lt;div&gt;[%c4Type%:&amp;nbsp;%c4Technology%]&lt;/div&gt;&lt;br&gt;&lt;div&gt;&lt;font style=&quot;font-size: 11px&quot;&gt;&lt;font color=&quot;#E6E6E6&quot;&gt;%c4Description%&lt;/font&gt;&lt;/div&gt;" id="6oxGUcotTHgbZWISp_Xx-9">
          <mxCell style="shape=cylinder3;size=15;direction=south;whiteSpace=wrap;html=1;boundedLbl=1;rounded=0;labelBackgroundColor=none;fillColor=#23A2D9;fontSize=12;fontColor=#ffffff;align=center;strokeColor=#0E7DAD;metaEdit=1;points=[[0.5,0,0],[1,0.25,0],[1,0.5,0],[1,0.75,0],[0.5,1,0],[0,0.75,0],[0,0.5,0],[0,0.25,0]];resizable=0;" parent="BX2joiUE_Fl3DRpkrzmP-1" vertex="1">
            <mxGeometry x="480" y="1000" width="240" height="120" as="geometry" />
          </mxCell>
        </object>
        <mxCell id="6oxGUcotTHgbZWISp_Xx-10" style="edgeStyle=orthogonalEdgeStyle;rounded=0;orthogonalLoop=1;jettySize=auto;html=1;entryX=0;entryY=0.5;entryDx=0;entryDy=0;entryPerimeter=0;" parent="BX2joiUE_Fl3DRpkrzmP-1" target="6oxGUcotTHgbZWISp_Xx-8" edge="1">
          <mxGeometry relative="1" as="geometry">
            <mxPoint x="360" y="1220" as="sourcePoint" />
          </mxGeometry>
        </mxCell>
        <mxCell id="6oxGUcotTHgbZWISp_Xx-11" value="read/write" style="edgeLabel;html=1;align=center;verticalAlign=middle;resizable=0;points=[];" parent="6oxGUcotTHgbZWISp_Xx-10" vertex="1" connectable="0">
          <mxGeometry x="-0.0309" relative="1" as="geometry">
            <mxPoint x="22" y="-10" as="offset" />
          </mxGeometry>
        </mxCell>
        <object placeholders="1" c4Name="Reaction" c4Type="Component" c4Technology="" c4Description="Manage user reactions" label="&lt;font style=&quot;font-size: 16px&quot;&gt;&lt;b&gt;%c4Name%&lt;/b&gt;&lt;/font&gt;&lt;div&gt;[%c4Type%: %c4Technology%]&lt;/div&gt;&lt;br&gt;&lt;div&gt;&lt;font style=&quot;font-size: 11px&quot;&gt;%c4Description%&lt;/font&gt;&lt;/div&gt;" id="6oxGUcotTHgbZWISp_Xx-14">
          <mxCell style="rounded=1;whiteSpace=wrap;html=1;labelBackgroundColor=none;fillColor=#63BEF2;fontColor=#ffffff;align=center;arcSize=6;strokeColor=#2086C9;metaEdit=1;resizable=0;points=[[0.25,0,0],[0.5,0,0],[0.75,0,0],[1,0.25,0],[1,0.5,0],[1,0.75,0],[0.75,1,0],[0.5,1,0],[0.25,1,0],[0,0.75,0],[0,0.5,0],[0,0.25,0]];" parent="BX2joiUE_Fl3DRpkrzmP-1" vertex="1">
            <mxGeometry x="80" y="840" width="240" height="120" as="geometry" />
          </mxCell>
        </object>
        <object placeholders="1" c4Name="Rating" c4Type="Component" c4Technology="" c4Description="Manage user ratings" label="&lt;font style=&quot;font-size: 16px&quot;&gt;&lt;b&gt;%c4Name%&lt;/b&gt;&lt;/font&gt;&lt;div&gt;[%c4Type%: %c4Technology%]&lt;/div&gt;&lt;br&gt;&lt;div&gt;&lt;font style=&quot;font-size: 11px&quot;&gt;%c4Description%&lt;/font&gt;&lt;/div&gt;" id="3Fz94s7PP4_9Xg1Jn0A_-0">
          <mxCell style="rounded=1;whiteSpace=wrap;html=1;labelBackgroundColor=none;fillColor=#63BEF2;fontColor=#ffffff;align=center;arcSize=6;strokeColor=#2086C9;metaEdit=1;resizable=0;points=[[0.25,0,0],[0.5,0,0],[0.75,0,0],[1,0.25,0],[1,0.5,0],[1,0.75,0],[0.75,1,0],[0.5,1,0],[0.25,1,0],[0,0.75,0],[0,0.5,0],[0,0.25,0]];" parent="BX2joiUE_Fl3DRpkrzmP-1" vertex="1">
            <mxGeometry x="80" y="1160" width="240" height="120" as="geometry" />
          </mxCell>
        </object>
        <object placeholders="1" c4Name="Comment" c4Type="Component" c4Technology="" c4Description="Manage user comments" label="&lt;font style=&quot;font-size: 16px&quot;&gt;&lt;b&gt;%c4Name%&lt;/b&gt;&lt;/font&gt;&lt;div&gt;[%c4Type%: %c4Technology%]&lt;/div&gt;&lt;br&gt;&lt;div&gt;&lt;font style=&quot;font-size: 11px&quot;&gt;%c4Description%&lt;/font&gt;&lt;/div&gt;" id="3Fz94s7PP4_9Xg1Jn0A_-1">
          <mxCell style="rounded=1;whiteSpace=wrap;html=1;labelBackgroundColor=none;fillColor=#63BEF2;fontColor=#ffffff;align=center;arcSize=6;strokeColor=#2086C9;metaEdit=1;resizable=0;points=[[0.25,0,0],[0.5,0,0],[0.75,0,0],[1,0.25,0],[1,0.5,0],[1,0.75,0],[0.75,1,0],[0.5,1,0],[0.25,1,0],[0,0.75,0],[0,0.5,0],[0,0.25,0]];" parent="BX2joiUE_Fl3DRpkrzmP-1" vertex="1">
            <mxGeometry x="80" y="1000" width="240" height="120" as="geometry" />
          </mxCell>
        </object>
        <mxCell id="3Fz94s7PP4_9Xg1Jn0A_-6" style="edgeStyle=orthogonalEdgeStyle;rounded=0;orthogonalLoop=1;jettySize=auto;html=1;entryX=0.5;entryY=1;entryDx=0;entryDy=0;entryPerimeter=0;" parent="BX2joiUE_Fl3DRpkrzmP-1" edge="1">
          <mxGeometry relative="1" as="geometry">
            <mxPoint x="360" y="1059.5" as="sourcePoint" />
            <mxPoint x="480" y="1059.5" as="targetPoint" />
            <Array as="points">
              <mxPoint x="450" y="1059.5" />
              <mxPoint x="450" y="1059.5" />
            </Array>
          </mxGeometry>
        </mxCell>
        <mxCell id="c06NzCqDhZ5fxaEXTR-d-0" value="&lt;span style=&quot;color: rgb(0, 0, 0); font-family: Helvetica; font-size: 11px; font-style: normal; font-variant-ligatures: normal; font-variant-caps: normal; font-weight: 400; letter-spacing: normal; orphans: 2; text-align: center; text-indent: 0px; text-transform: none; widows: 2; word-spacing: 0px; -webkit-text-stroke-width: 0px; white-space: nowrap; background-color: rgb(255, 255, 255); text-decoration-thickness: initial; text-decoration-style: initial; text-decoration-color: initial; display: inline !important; float: none;&quot;&gt;Sending/Receiving Messages&lt;/span&gt;" style="text;whiteSpace=wrap;html=1;" parent="BX2joiUE_Fl3DRpkrzmP-1" vertex="1">
          <mxGeometry x="350" y="1030" width="180" height="40" as="geometry" />
        </mxCell>
      </root>
    </mxGraphModel>
  </diagram>
  <diagram id="5-QEKw0O_m5Dh-QAgMf1" name="deployment_development_feedbackSystem">
    <mxGraphModel dx="1564" dy="2375" grid="1" gridSize="10" guides="1" tooltips="1" connect="1" arrows="1" fold="1" page="1" pageScale="1" pageWidth="827" pageHeight="1169" math="0" shadow="0">
      <root>
        <mxCell id="0" />
        <mxCell id="1" parent="0" />
        <object placeholders="1" label="&lt;font style=&quot;font-size: 16px&quot;&gt;&lt;b&gt;&lt;div style=&quot;text-align: left&quot;&gt;%top%&lt;/div&gt;&lt;/b&gt;&lt;/font&gt;&lt;div style=&quot;text-align: left&quot;&gt;%bottom%&lt;/div&gt;" top="[Deployment] Feedback System - development" bottom="" id="c-NDOjgKE_WrYrarA_SW-7">
          <mxCell style="rounded=1;fontSize=11;whiteSpace=wrap;html=1;dashed=1;arcSize=20;fillColor=none;strokeColor=#666666;fontColor=#333333;labelBackgroundColor=none;align=left;verticalAlign=bottom;labelBorderColor=none;spacingTop=0;spacing=10;dashPattern=8 4;metaEdit=1;rotatable=0;perimeter=rectanglePerimeter;noLabel=0;labelPadding=0;allowArrows=0;connectable=0;expand=0;recursiveResize=0;editable=1;pointerEvents=0;absoluteArcSize=1;points=[[0.25,0,0],[0.5,0,0],[0.75,0,0],[1,0.25,0],[1,0.5,0],[1,0.75,0],[0.75,1,0],[0.5,1,0],[0.25,1,0],[0,0.75,0],[0,0.5,0],[0,0.25,0]];" parent="1" vertex="1">
            <mxGeometry x="840" y="-1160" width="960" height="640" as="geometry" />
          </mxCell>
        </object>
        <object placeholders="1" c4Name="Identity and AccessManagement (IAM)" c4Type="Software System" c4Description="" label="&lt;font style=&quot;font-size: 16px&quot;&gt;&lt;b&gt;%c4Name%&lt;/b&gt;&lt;/font&gt;&lt;div&gt;[%c4Type%]&lt;/div&gt;&lt;br&gt;&lt;div&gt;&lt;font style=&quot;font-size: 11px&quot;&gt;&lt;font color=&quot;#cccccc&quot;&gt;%c4Description%&lt;/font&gt;&lt;/div&gt;" id="c-NDOjgKE_WrYrarA_SW-13">
          <mxCell style="rounded=1;whiteSpace=wrap;html=1;labelBackgroundColor=none;fillColor=#8C8496;fontColor=#ffffff;align=center;arcSize=10;strokeColor=#736782;metaEdit=1;resizable=0;points=[[0.25,0,0],[0.5,0,0],[0.75,0,0],[1,0.25,0],[1,0.5,0],[1,0.75,0],[0.75,1,0],[0.5,1,0],[0.25,1,0],[0,0.75,0],[0,0.5,0],[0,0.25,0]];" parent="1" vertex="1">
            <mxGeometry x="1440" y="-1080" width="240" height="120" as="geometry" />
          </mxCell>
        </object>
        <object placeholders="1" label="&lt;font style=&quot;font-size: 16px&quot;&gt;&lt;b&gt;&lt;div style=&quot;text-align: left&quot;&gt;%top%&lt;/div&gt;&lt;/b&gt;&lt;/font&gt;&lt;div style=&quot;text-align: left&quot;&gt;%bottom%&lt;/div&gt;" top="Developer&#39;s Computer" bottom="[Deployment Node: Ubuntu 24.04]" id="c-NDOjgKE_WrYrarA_SW-14">
          <mxCell style="rounded=1;fontSize=11;whiteSpace=wrap;html=1;dashed=1;arcSize=20;fillColor=none;strokeColor=#666666;fontColor=#333333;labelBackgroundColor=none;align=left;verticalAlign=bottom;labelBorderColor=none;spacingTop=0;spacing=10;dashPattern=8 4;metaEdit=1;rotatable=0;perimeter=rectanglePerimeter;noLabel=0;labelPadding=0;allowArrows=0;connectable=0;expand=0;recursiveResize=0;editable=1;pointerEvents=0;absoluteArcSize=1;points=[[0.25,0,0],[0.5,0,0],[0.75,0,0],[1,0.25,0],[1,0.5,0],[1,0.75,0],[0.75,1,0],[0.5,1,0],[0.25,1,0],[0,0.75,0],[0,0.5,0],[0,0.25,0]];" parent="1" vertex="1">
            <mxGeometry x="880" y="-1120" width="400" height="290" as="geometry" />
          </mxCell>
        </object>
        <object placeholders="1" label="&lt;font style=&quot;font-size: 16px&quot;&gt;&lt;b&gt;&lt;div style=&quot;text-align: left&quot;&gt;%top%&lt;/div&gt;&lt;/b&gt;&lt;/font&gt;&lt;div style=&quot;text-align: left&quot;&gt;%bottom%&lt;/div&gt;" top="Docker" bottom="[Deployment Node]" id="c-NDOjgKE_WrYrarA_SW-15">
          <mxCell style="rounded=1;fontSize=11;whiteSpace=wrap;html=1;dashed=1;arcSize=20;fillColor=none;strokeColor=#666666;fontColor=#333333;labelBackgroundColor=none;align=left;verticalAlign=bottom;labelBorderColor=none;spacingTop=0;spacing=10;dashPattern=8 4;metaEdit=1;rotatable=0;perimeter=rectanglePerimeter;noLabel=0;labelPadding=0;allowArrows=0;connectable=0;expand=0;recursiveResize=0;editable=1;pointerEvents=0;absoluteArcSize=1;points=[[0.25,0,0],[0.5,0,0],[0.75,0,0],[1,0.25,0],[1,0.5,0],[1,0.75,0],[0.75,1,0],[0.5,1,0],[0.25,1,0],[0,0.75,0],[0,0.5,0],[0,0.25,0]];" parent="1" vertex="1">
            <mxGeometry x="1360" y="-1120" width="400" height="560" as="geometry" />
          </mxCell>
        </object>
        <object placeholders="1" c4Type="Relationship" c4Description="take keys" label="&lt;div style=&quot;text-align: left&quot;&gt;&lt;div style=&quot;text-align: center&quot;&gt;&lt;b&gt;%c4Description%&lt;/b&gt;&lt;/div&gt;" id="c-NDOjgKE_WrYrarA_SW-16">
          <mxCell style="endArrow=blockThin;html=1;fontSize=10;fontColor=#404040;strokeWidth=1;endFill=1;strokeColor=#828282;elbow=vertical;metaEdit=1;endSize=14;startSize=14;jumpStyle=arc;jumpSize=16;rounded=0;edgeStyle=orthogonalEdgeStyle;exitX=1;exitY=0.5;exitDx=0;exitDy=0;exitPerimeter=0;entryX=0;entryY=0.5;entryDx=0;entryDy=0;entryPerimeter=0;" parent="1" target="c-NDOjgKE_WrYrarA_SW-13" edge="1">
            <mxGeometry width="240" relative="1" as="geometry">
              <mxPoint x="1200" y="-1020" as="sourcePoint" />
              <mxPoint x="1500" y="-1090" as="targetPoint" />
              <mxPoint as="offset" />
            </mxGeometry>
          </mxCell>
        </object>
        <object placeholders="1" c4Name="Feedback Service" c4Type="Container" c4Technology="Spring" c4Description="Allows user to add: reactions, ratings and comments." label="&lt;font style=&quot;font-size: 16px&quot;&gt;&lt;b&gt;%c4Name%&lt;/b&gt;&lt;/font&gt;&lt;div&gt;[%c4Type%: %c4Technology%]&lt;/div&gt;&lt;br&gt;&lt;div&gt;&lt;font style=&quot;font-size: 11px&quot;&gt;&lt;font color=&quot;#E6E6E6&quot;&gt;%c4Description%&lt;/font&gt;&lt;/div&gt;" id="3ZJdyBFGBV4hBSJn54f8-15">
          <mxCell style="rounded=1;whiteSpace=wrap;html=1;fontSize=11;labelBackgroundColor=none;fillColor=#23A2D9;fontColor=#ffffff;align=center;arcSize=10;strokeColor=#0E7DAD;metaEdit=1;resizable=0;points=[[0.25,0,0],[0.5,0,0],[0.75,0,0],[1,0.25,0],[1,0.5,0],[1,0.75,0],[0.75,1,0],[0.5,1,0],[0.25,1,0],[0,0.75,0],[0,0.5,0],[0,0.25,0]];" parent="1" vertex="1">
            <mxGeometry x="960" y="-1080" width="240" height="120" as="geometry" />
          </mxCell>
        </object>
        <object placeholders="1" c4Name="NoSQL database" c4Type="Container" c4Technology="MongoDB" c4Description="" label="&lt;font style=&quot;font-size: 16px&quot;&gt;&lt;b&gt;%c4Name%&lt;/b&gt;&lt;/font&gt;&lt;div&gt;[%c4Type%:&amp;nbsp;%c4Technology%]&lt;/div&gt;&lt;br&gt;&lt;div&gt;&lt;font style=&quot;font-size: 11px&quot;&gt;&lt;font color=&quot;#E6E6E6&quot;&gt;%c4Description%&lt;/font&gt;&lt;/div&gt;" id="3ZJdyBFGBV4hBSJn54f8-16">
          <mxCell style="shape=cylinder3;size=15;whiteSpace=wrap;html=1;boundedLbl=1;rounded=0;labelBackgroundColor=none;fillColor=#23A2D9;fontSize=12;fontColor=#ffffff;align=center;strokeColor=#0E7DAD;metaEdit=1;points=[[0.5,0,0],[1,0.25,0],[1,0.5,0],[1,0.75,0],[0.5,1,0],[0,0.75,0],[0,0.5,0],[0,0.25,0]];resizable=0;" parent="1" vertex="1">
            <mxGeometry x="1440" y="-920" width="240" height="120" as="geometry" />
          </mxCell>
        </object>
        <object placeholders="1" c4Name="Broker" c4Type="Container" c4Technology="Apache Kafka" c4Description="" label="&lt;font style=&quot;font-size: 16px&quot;&gt;&lt;b&gt;%c4Name%&lt;/b&gt;&lt;/font&gt;&lt;div&gt;[%c4Type%:&amp;nbsp;%c4Technology%]&lt;/div&gt;&lt;br&gt;&lt;div&gt;&lt;font style=&quot;font-size: 11px&quot;&gt;&lt;font color=&quot;#E6E6E6&quot;&gt;%c4Description%&lt;/font&gt;&lt;/div&gt;" id="3ZJdyBFGBV4hBSJn54f8-17">
          <mxCell style="shape=cylinder3;size=15;direction=south;whiteSpace=wrap;html=1;boundedLbl=1;rounded=0;labelBackgroundColor=none;fillColor=#23A2D9;fontSize=12;fontColor=#ffffff;align=center;strokeColor=#0E7DAD;metaEdit=1;points=[[0.5,0,0],[1,0.25,0],[1,0.5,0],[1,0.75,0],[0.5,1,0],[0,0.75,0],[0,0.5,0],[0,0.25,0]];resizable=0;" parent="1" vertex="1">
            <mxGeometry x="1440" y="-760" width="240" height="120" as="geometry" />
          </mxCell>
        </object>
        <mxCell id="3ZJdyBFGBV4hBSJn54f8-20" style="edgeStyle=orthogonalEdgeStyle;rounded=0;orthogonalLoop=1;jettySize=auto;html=1;exitX=1;exitY=0.25;exitDx=0;exitDy=0;exitPerimeter=0;entryX=0;entryY=0.5;entryDx=0;entryDy=0;entryPerimeter=0;" parent="1" source="3ZJdyBFGBV4hBSJn54f8-15" target="3ZJdyBFGBV4hBSJn54f8-16" edge="1">
          <mxGeometry relative="1" as="geometry">
            <mxPoint x="2150" y="-1020" as="sourcePoint" />
            <mxPoint x="1430" y="-860" as="targetPoint" />
            <Array as="points">
              <mxPoint x="1250" y="-1050" />
              <mxPoint x="1250" y="-860" />
            </Array>
          </mxGeometry>
        </mxCell>
        <mxCell id="3ZJdyBFGBV4hBSJn54f8-21" value="read/write" style="edgeLabel;html=1;align=center;verticalAlign=middle;resizable=0;points=[];" parent="3ZJdyBFGBV4hBSJn54f8-20" vertex="1" connectable="0">
          <mxGeometry x="-0.0309" relative="1" as="geometry">
            <mxPoint as="offset" />
          </mxGeometry>
        </mxCell>
        <mxCell id="3ZJdyBFGBV4hBSJn54f8-22" style="edgeStyle=orthogonalEdgeStyle;rounded=0;orthogonalLoop=1;jettySize=auto;html=1;exitX=1;exitY=0.75;exitDx=0;exitDy=0;exitPerimeter=0;entryX=0.607;entryY=0.989;entryDx=0;entryDy=0;entryPerimeter=0;" parent="1" source="3ZJdyBFGBV4hBSJn54f8-15" target="3ZJdyBFGBV4hBSJn54f8-17" edge="1">
          <mxGeometry relative="1" as="geometry">
            <mxPoint x="1060" y="-720" as="sourcePoint" />
            <mxPoint x="1321" y="-640" as="targetPoint" />
            <Array as="points">
              <mxPoint x="1240" y="-990" />
              <mxPoint x="1240" y="-687" />
            </Array>
          </mxGeometry>
        </mxCell>
        <mxCell id="3ZJdyBFGBV4hBSJn54f8-23" value="Sending/Receiving Messages" style="edgeLabel;html=1;align=center;verticalAlign=middle;resizable=0;points=[];" parent="3ZJdyBFGBV4hBSJn54f8-22" vertex="1" connectable="0">
          <mxGeometry x="0.1825" y="-3" relative="1" as="geometry">
            <mxPoint as="offset" />
          </mxGeometry>
        </mxCell>
      </root>
    </mxGraphModel>
  </diagram>
</mxfile>
